<?xml version="1.0" encoding="UTF-8" standalone="no"?>
<!DOCTYPE svg PUBLIC "-//W3C//DTD SVG 1.1//EN"
 "http://www.w3.org/Graphics/SVG/1.1/DTD/svg11.dtd">
<!-- Generated by graphviz version 2.43.0 (0)
 -->
<!-- Title: source tree Pages: 1 -->
<svg width="576pt" height="695pt"
 viewBox="0.00 0.00 576.00 694.58" xmlns="http://www.w3.org/2000/svg" xmlns:xlink="http://www.w3.org/1999/xlink">
<g id="graph0" class="graph" transform="scale(0.41 0.41) rotate(0) translate(4 1672.75)">
<title>source tree</title>
<polygon fill="#1e1e1e" stroke="transparent" points="-4,4 -4,-1672.75 1386.5,-1672.75 1386.5,4 -4,4"/>
<!-- RawArray.h -->
<g id="node1" class="node">
<title>RawArray.h</title>
<polygon fill="#2d3748" stroke="#4a5568" points="1184.5,-1038 1109.5,-1038 1109.5,-1002 1184.5,-1002 1184.5,-1038"/>
<text text-anchor="middle" x="1147" y="-1017.5" font-family="Times,serif" font-size="10.00" fill="#e2e8f0">RawArray.h</text>
</g>
<!-- ComponentTypeInfo.h -->
<g id="node2" class="node">
<title>ComponentTypeInfo.h</title>
<polygon fill="#2d3748" stroke="#4a5568" points="1183.5,-914 1052.5,-914 1052.5,-878 1183.5,-878 1183.5,-914"/>
<text text-anchor="middle" x="1118" y="-893.5" font-family="Times,serif" font-size="10.00" fill="#e2e8f0">ComponentTypeInfo.h</text>
</g>
<!-- RawArray.h&#45;&gt;ComponentTypeInfo.h -->
<g id="edge1" class="edge">
<title>RawArray.h&#45;&gt;ComponentTypeInfo.h</title>
<path fill="none" stroke="#718096" d="M1140.57,-991.97C1134.93,-968.21 1126.88,-934.35 1122.07,-914.13"/>
<polygon fill="#718096" stroke="#718096" points="1137.19,-992.86 1142.91,-1001.78 1144,-991.24 1137.19,-992.86"/>
</g>
<!-- Material.h -->
<g id="node3" class="node">
<title>Material.h</title>
<polygon fill="#2d3748" stroke="#4a5568" points="645.5,-791 576.5,-791 576.5,-755 645.5,-755 645.5,-791"/>
<text text-anchor="middle" x="611" y="-770.5" font-family="Times,serif" font-size="10.00" fill="#e2e8f0">Material.h</text>
</g>
<!-- ComponentTypeInfo.h&#45;&gt;Material.h -->
<g id="edge2" class="edge">
<title>ComponentTypeInfo.h&#45;&gt;Material.h</title>
<path fill="none" stroke="#f56565" stroke-width="2" d="M1042.67,-877.02C931.24,-850.43 726.9,-801.66 645.65,-782.27"/>
<polygon fill="#f56565" stroke="#f56565" stroke-width="2" points="1041.96,-880.45 1052.5,-879.37 1043.58,-873.64 1041.96,-880.45"/>
</g>
<!-- SerialManager.h -->
<g id="node4" class="node">
<title>SerialManager.h</title>
<polygon fill="#2d3748" stroke="#4a5568" points="1245.5,-173 1144.5,-173 1144.5,-137 1245.5,-137 1245.5,-173"/>
<text text-anchor="middle" x="1195" y="-152.5" font-family="Times,serif" font-size="10.00" fill="#e2e8f0">SerialManager.h</text>
</g>
<!-- ComponentTypeInfo.h&#45;&gt;SerialManager.h -->
<g id="edge3" class="edge">
<title>ComponentTypeInfo.h&#45;&gt;SerialManager.h</title>
<path fill="none" stroke="#718096" d="M1179.4,-873.98C1218.12,-857.49 1265.8,-830.62 1293,-791 1328.98,-738.59 1317,-713.57 1317,-650 1317,-650 1317,-650 1317,-401 1317,-337.43 1321.34,-316.9 1293,-260 1275.08,-224.03 1240.6,-191.93 1217.69,-173.22"/>
<polygon fill="#718096" stroke="#718096" points="1177.67,-870.91 1169.76,-877.95 1180.34,-877.38 1177.67,-870.91"/>
</g>
<!-- PassManager.h -->
<g id="node17" class="node">
<title>PassManager.h</title>
<polygon fill="#2d3748" stroke="#4a5568" points="642.5,-667 547.5,-667 547.5,-631 642.5,-631 642.5,-667"/>
<text text-anchor="middle" x="595" y="-646.5" font-family="Times,serif" font-size="10.00" fill="#e2e8f0">PassManager.h</text>
</g>
<!-- Material.h&#45;&gt;PassManager.h -->
<g id="edge23" class="edge">
<title>Material.h&#45;&gt;PassManager.h</title>
<path fill="none" stroke="#f56565" stroke-width="2" d="M607.41,-744.65C604.3,-720.9 599.89,-687.26 597.25,-667.13"/>
<polygon fill="#f56565" stroke="#f56565" stroke-width="2" points="603.97,-745.32 608.74,-754.78 610.91,-744.41 603.97,-745.32"/>
</g>
<!-- ReadByteStream.h -->
<g id="node33" class="node">
<title>ReadByteStream.h</title>
<polygon fill="#2d3748" stroke="#4a5568" points="1382.5,-49 1269.5,-49 1269.5,-13 1382.5,-13 1382.5,-49"/>
<text text-anchor="middle" x="1326" y="-28.5" font-family="Times,serif" font-size="10.00" fill="#e2e8f0">ReadByteStream.h</text>
</g>
<!-- SerialManager.h&#45;&gt;ReadByteStream.h -->
<g id="edge40" class="edge">
<title>SerialManager.h&#45;&gt;ReadByteStream.h</title>
<path fill="none" stroke="#718096" d="M1220.99,-129.8C1246.58,-105.96 1285.02,-70.16 1307.6,-49.13"/>
<polygon fill="#718096" stroke="#718096" points="1218.42,-127.4 1213.49,-136.78 1223.19,-132.53 1218.42,-127.4"/>
</g>
<!-- SerialConcepts.h -->
<g id="node34" class="node">
<title>SerialConcepts.h</title>
<polygon fill="#2d3748" stroke="#4a5568" points="1120.5,-49 1017.5,-49 1017.5,-13 1120.5,-13 1120.5,-49"/>
<text text-anchor="middle" x="1069" y="-28.5" font-family="Times,serif" font-size="10.00" fill="#e2e8f0">SerialConcepts.h</text>
</g>
<!-- SerialManager.h&#45;&gt;SerialConcepts.h -->
<g id="edge41" class="edge">
<title>SerialManager.h&#45;&gt;SerialConcepts.h</title>
<path fill="none" stroke="#718096" d="M1170,-129.8C1145.39,-105.96 1108.42,-70.16 1086.7,-49.13"/>
<polygon fill="#718096" stroke="#718096" points="1167.6,-132.34 1177.21,-136.78 1172.46,-127.31 1167.6,-132.34"/>
</g>
<!-- WriteByteStream.h -->
<g id="node35" class="node">
<title>WriteByteStream.h</title>
<polygon fill="#2d3748" stroke="#4a5568" points="1251.5,-49 1138.5,-49 1138.5,-13 1251.5,-13 1251.5,-49"/>
<text text-anchor="middle" x="1195" y="-28.5" font-family="Times,serif" font-size="10.00" fill="#e2e8f0">WriteByteStream.h</text>
</g>
<!-- SerialManager.h&#45;&gt;WriteByteStream.h -->
<g id="edge42" class="edge">
<title>SerialManager.h&#45;&gt;WriteByteStream.h</title>
<path fill="none" stroke="#718096" d="M1195,-126.65C1195,-102.9 1195,-69.26 1195,-49.13"/>
<polygon fill="#718096" stroke="#718096" points="1191.5,-126.78 1195,-136.78 1198.5,-126.78 1191.5,-126.78"/>
</g>
<!-- EngineResources.h -->
<g id="node5" class="node">
<title>EngineResources.h</title>
<polygon fill="#2d3748" stroke="#4a5568" points="182,-791 66,-791 66,-755 182,-755 182,-791"/>
<text text-anchor="middle" x="124" y="-770.5" font-family="Times,serif" font-size="10.00" fill="#e2e8f0">EngineResources.h</text>
</g>
<!-- VulkanTypes.h -->
<g id="node6" class="node">
<title>VulkanTypes.h</title>
<polygon fill="#2d3748" stroke="#4a5568" points="495,-49 403,-49 403,-13 495,-13 495,-49"/>
<text text-anchor="middle" x="449" y="-28.5" font-family="Times,serif" font-size="10.00" fill="#e2e8f0">VulkanTypes.h</text>
</g>
<!-- EngineResources.h&#45;&gt;VulkanTypes.h -->
<g id="edge4" class="edge">
<title>EngineResources.h&#45;&gt;VulkanTypes.h</title>
<path fill="none" stroke="#718096" d="M115.3,-745.38C101.47,-700.6 76,-607.14 76,-526 76,-526 76,-526 76,-277 76,-122.24 303.09,-59.83 402.89,-39.87"/>
<polygon fill="#718096" stroke="#718096" points="111.97,-746.44 118.31,-754.93 118.64,-744.34 111.97,-746.44"/>
</g>
<!-- ResourceHandles.h -->
<g id="node7" class="node">
<title>ResourceHandles.h</title>
<polygon fill="#2d3748" stroke="#4a5568" points="258,-667 142,-667 142,-631 258,-631 258,-667"/>
<text text-anchor="middle" x="200" y="-646.5" font-family="Times,serif" font-size="10.00" fill="#e2e8f0">ResourceHandles.h</text>
</g>
<!-- EngineResources.h&#45;&gt;ResourceHandles.h -->
<g id="edge5" class="edge">
<title>EngineResources.h&#45;&gt;ResourceHandles.h</title>
<path fill="none" stroke="#718096" d="M140.05,-746.24C154.88,-722.43 176.51,-687.71 189.33,-667.13"/>
<polygon fill="#718096" stroke="#718096" points="137.04,-744.44 134.73,-754.78 142.99,-748.14 137.04,-744.44"/>
</g>
<!-- PassMesh.h -->
<g id="node8" class="node">
<title>PassMesh.h</title>
<polygon fill="#2d3748" stroke="#4a5568" points="886.5,-296 809.5,-296 809.5,-260 886.5,-260 886.5,-296"/>
<text text-anchor="middle" x="848" y="-275.5" font-family="Times,serif" font-size="10.00" fill="#e2e8f0">PassMesh.h</text>
</g>
<!-- EngineResources.h&#45;&gt;PassMesh.h -->
<g id="edge6" class="edge">
<title>EngineResources.h&#45;&gt;PassMesh.h</title>
<path fill="none" stroke="#718096" d="M121.11,-744.83C115.13,-672.83 110.1,-476.36 220,-384 310.34,-308.08 686.79,-285.76 809.29,-280.44"/>
<polygon fill="#718096" stroke="#718096" points="117.63,-745.26 122.02,-754.9 124.6,-744.63 117.63,-745.26"/>
</g>
<!-- Descriptors.h -->
<g id="node18" class="node">
<title>Descriptors.h</title>
<polygon fill="#2d3748" stroke="#4a5568" points="372.5,-543 287.5,-543 287.5,-507 372.5,-507 372.5,-543"/>
<text text-anchor="middle" x="330" y="-522.5" font-family="Times,serif" font-size="10.00" fill="#e2e8f0">Descriptors.h</text>
</g>
<!-- ResourceHandles.h&#45;&gt;Descriptors.h -->
<g id="edge31" class="edge">
<title>ResourceHandles.h&#45;&gt;Descriptors.h</title>
<path fill="none" stroke="#718096" d="M225.79,-623.8C251.19,-599.96 289.33,-564.16 311.74,-543.13"/>
<polygon fill="#718096" stroke="#718096" points="223.25,-621.38 218.35,-630.78 228.04,-626.49 223.25,-621.38"/>
</g>
<!-- PassMesh.h&#45;&gt;ComponentTypeInfo.h -->
<g id="edge55" class="edge">
<title>PassMesh.h&#45;&gt;ComponentTypeInfo.h</title>
<path fill="none" stroke="#f56565" stroke-width="2" d="M872.04,-303.7C890.07,-323.71 913.83,-353.49 927,-384 952.01,-441.96 951,-460.87 951,-524 951,-650 951,-650 951,-650 951,-751.15 1049.39,-841.37 1095.13,-877.84"/>
<polygon fill="#f56565" stroke="#f56565" stroke-width="2" points="874.55,-301.25 865.2,-296.27 869.4,-306 874.55,-301.25"/>
</g>
<!-- PassMesh.h&#45;&gt;SerialManager.h -->
<g id="edge56" class="edge">
<title>PassMesh.h&#45;&gt;SerialManager.h</title>
<path fill="none" stroke="#ffd700" stroke-width="2" d="M896.54,-260.07C962.57,-237.05 1080.01,-196.1 1146.18,-173.02"/>
<polygon fill="#ffd700" stroke="#ffd700" stroke-width="2" points="895.09,-256.87 886.8,-263.47 897.39,-263.48 895.09,-256.87"/>
</g>
<!-- Buffer.h -->
<g id="node28" class="node">
<title>Buffer.h</title>
<polygon fill="#2d3748" stroke="#4a5568" points="448.5,-173 391.5,-173 391.5,-137 448.5,-137 448.5,-173"/>
<text text-anchor="middle" x="420" y="-152.5" font-family="Times,serif" font-size="10.00" fill="#e2e8f0">Buffer.h</text>
</g>
<!-- PassMesh.h&#45;&gt;Buffer.h -->
<g id="edge57" class="edge">
<title>PassMesh.h&#45;&gt;Buffer.h</title>
<path fill="none" stroke="#718096" d="M799.61,-263.32C709.91,-237.96 520.42,-184.39 448.5,-164.06"/>
<polygon fill="#718096" stroke="#718096" points="798.69,-266.7 809.26,-266.05 800.59,-259.96 798.69,-266.7"/>
</g>
<!-- EngineAliases.h -->
<g id="node9" class="node">
<title>EngineAliases.h</title>
<polygon fill="#2d3748" stroke="#4a5568" points="964.5,-1409 865.5,-1409 865.5,-1373 964.5,-1373 964.5,-1409"/>
<text text-anchor="middle" x="915" y="-1388.5" font-family="Times,serif" font-size="10.00" fill="#e2e8f0">EngineAliases.h</text>
</g>
<!-- Engine.h -->
<g id="node10" class="node">
<title>Engine.h</title>
<polygon fill="#2d3748" stroke="#4a5568" points="1166.5,-1285 1103.5,-1285 1103.5,-1249 1166.5,-1249 1166.5,-1285"/>
<text text-anchor="middle" x="1135" y="-1264.5" font-family="Times,serif" font-size="10.00" fill="#e2e8f0">Engine.h</text>
</g>
<!-- EngineAliases.h&#45;&gt;Engine.h -->
<g id="edge7" class="edge">
<title>EngineAliases.h&#45;&gt;Engine.h</title>
<path fill="none" stroke="#718096" d="M954.82,-1367.92C997.7,-1344.14 1065.04,-1306.8 1104.1,-1285.13"/>
<polygon fill="#718096" stroke="#718096" points="953.1,-1364.87 946.05,-1372.78 956.5,-1370.99 953.1,-1364.87"/>
</g>
<!-- ComponentTypeDefinitions.h -->
<g id="node11" class="node">
<title>ComponentTypeDefinitions.h</title>
<polygon fill="#2d3748" stroke="#4a5568" points="998.5,-1285 831.5,-1285 831.5,-1249 998.5,-1249 998.5,-1285"/>
<text text-anchor="middle" x="915" y="-1264.5" font-family="Times,serif" font-size="10.00" fill="#e2e8f0">ComponentTypeDefinitions.h</text>
</g>
<!-- EngineAliases.h&#45;&gt;ComponentTypeDefinitions.h -->
<g id="edge8" class="edge">
<title>EngineAliases.h&#45;&gt;ComponentTypeDefinitions.h</title>
<path fill="none" stroke="#718096" d="M915,-1362.65C915,-1338.9 915,-1305.26 915,-1285.13"/>
<polygon fill="#718096" stroke="#718096" points="911.5,-1362.78 915,-1372.78 918.5,-1362.78 911.5,-1362.78"/>
</g>
<!-- UpdateQueue.h -->
<g id="node12" class="node">
<title>UpdateQueue.h</title>
<polygon fill="#2d3748" stroke="#4a5568" points="1300,-1038 1202,-1038 1202,-1002 1300,-1002 1300,-1038"/>
<text text-anchor="middle" x="1251" y="-1017.5" font-family="Times,serif" font-size="10.00" fill="#e2e8f0">UpdateQueue.h</text>
</g>
<!-- Engine.h&#45;&gt;UpdateQueue.h -->
<g id="edge9" class="edge">
<title>Engine.h&#45;&gt;UpdateQueue.h</title>
<path fill="none" stroke="#718096" d="M1151.37,-1240.37C1164.35,-1219.47 1182.49,-1188.94 1196,-1161 1216.8,-1117.98 1235.97,-1064.92 1245.21,-1038.16"/>
<polygon fill="#718096" stroke="#718096" points="1148.32,-1238.64 1145.97,-1248.98 1154.25,-1242.36 1148.32,-1238.64"/>
</g>
<!-- ArchetypeData.h -->
<g id="node13" class="node">
<title>ArchetypeData.h</title>
<polygon fill="#2d3748" stroke="#4a5568" points="1186.5,-1161 1083.5,-1161 1083.5,-1125 1186.5,-1125 1186.5,-1161"/>
<text text-anchor="middle" x="1135" y="-1140.5" font-family="Times,serif" font-size="10.00" fill="#e2e8f0">ArchetypeData.h</text>
</g>
<!-- Engine.h&#45;&gt;ArchetypeData.h -->
<g id="edge10" class="edge">
<title>Engine.h&#45;&gt;ArchetypeData.h</title>
<path fill="none" stroke="#718096" d="M1135,-1238.65C1135,-1214.9 1135,-1181.26 1135,-1161.13"/>
<polygon fill="#718096" stroke="#718096" points="1131.5,-1238.78 1135,-1248.78 1138.5,-1238.78 1131.5,-1238.78"/>
</g>
<!-- ComponentTypeDefinitions.h&#45;&gt;PassMesh.h -->
<g id="edge28" class="edge">
<title>ComponentTypeDefinitions.h&#45;&gt;PassMesh.h</title>
<path fill="none" stroke="#718096" d="M914.63,-1238.58C914.05,-1193.29 913,-1099.99 913,-1021 913,-1021 913,-1021 913,-524 913,-435.77 873.13,-335.46 855.84,-296.11"/>
<polygon fill="#718096" stroke="#718096" points="911.13,-1238.82 914.76,-1248.77 918.13,-1238.73 911.13,-1238.82"/>
</g>
<!-- PassDirectory.h -->
<g id="node20" class="node">
<title>PassDirectory.h</title>
<polygon fill="#2d3748" stroke="#4a5568" points="802.5,-1161 707.5,-1161 707.5,-1125 802.5,-1125 802.5,-1161"/>
<text text-anchor="middle" x="755" y="-1140.5" font-family="Times,serif" font-size="10.00" fill="#e2e8f0">PassDirectory.h</text>
</g>
<!-- ComponentTypeDefinitions.h&#45;&gt;PassDirectory.h -->
<g id="edge26" class="edge">
<title>ComponentTypeDefinitions.h&#45;&gt;PassDirectory.h</title>
<path fill="none" stroke="#718096" d="M884.46,-1242.71C853.22,-1218.89 805.41,-1182.44 777.47,-1161.13"/>
<polygon fill="#718096" stroke="#718096" points="882.34,-1245.5 892.42,-1248.78 886.59,-1239.93 882.34,-1245.5"/>
</g>
<!-- array.h -->
<g id="node25" class="node">
<title>array.h</title>
<polygon fill="#2d3748" stroke="#4a5568" points="1034,-914 980,-914 980,-878 1034,-878 1034,-914"/>
<text text-anchor="middle" x="1007" y="-893.5" font-family="Times,serif" font-size="10.00" fill="#e2e8f0">array.h</text>
</g>
<!-- ComponentTypeDefinitions.h&#45;&gt;array.h -->
<g id="edge27" class="edge">
<title>ComponentTypeDefinitions.h&#45;&gt;array.h</title>
<path fill="none" stroke="#718096" d="M931.79,-1240.44C957.46,-1199.66 1005.36,-1116.46 1023,-1038 1032.89,-994.01 1020.46,-940.86 1012.57,-914.13"/>
<polygon fill="#718096" stroke="#718096" points="928.79,-1238.63 926.37,-1248.94 934.7,-1242.39 928.79,-1238.63"/>
</g>
<!-- UpdateQueue.h&#45;&gt;ComponentTypeInfo.h -->
<g id="edge44" class="edge">
<title>UpdateQueue.h&#45;&gt;ComponentTypeInfo.h</title>
<path fill="none" stroke="#718096" d="M1224.61,-994.8C1198.63,-970.96 1159.61,-935.16 1136.68,-914.13"/>
<polygon fill="#718096" stroke="#718096" points="1222.49,-997.6 1232.23,-1001.78 1227.22,-992.44 1222.49,-997.6"/>
</g>
<!-- ArchetypeData.h&#45;&gt;RawArray.h -->
<g id="edge58" class="edge">
<title>ArchetypeData.h&#45;&gt;RawArray.h</title>
<path fill="none" stroke="#718096" d="M1137.68,-1114.94C1140,-1091.53 1143.29,-1058.4 1145.28,-1038.38"/>
<polygon fill="#718096" stroke="#718096" points="1134.2,-1114.62 1136.69,-1124.92 1141.16,-1115.31 1134.2,-1114.62"/>
</g>
<!-- ArchetypeData.h&#45;&gt;ComponentTypeInfo.h -->
<g id="edge59" class="edge">
<title>ArchetypeData.h&#45;&gt;ComponentTypeInfo.h</title>
<path fill="none" stroke="#ffd700" stroke-width="2" d="M1123.71,-1115.37C1115.58,-1094.7 1105.31,-1065.08 1101,-1038 1093.94,-993.68 1105.51,-941.11 1112.79,-914.42"/>
<polygon fill="#ffd700" stroke="#ffd700" stroke-width="2" points="1120.5,-1116.79 1127.49,-1124.75 1126.99,-1114.17 1120.5,-1116.79"/>
</g>
<!-- AssetLookup.h -->
<g id="node14" class="node">
<title>AssetLookup.h</title>
<polygon fill="#2d3748" stroke="#4a5568" points="775,-420 683,-420 683,-384 775,-384 775,-420"/>
<text text-anchor="middle" x="729" y="-399.5" font-family="Times,serif" font-size="10.00" fill="#e2e8f0">AssetLookup.h</text>
</g>
<!-- AssetID.h -->
<g id="node15" class="node">
<title>AssetID.h</title>
<polygon fill="#2d3748" stroke="#4a5568" points="1144.5,-296 1079.5,-296 1079.5,-260 1144.5,-260 1144.5,-296"/>
<text text-anchor="middle" x="1112" y="-275.5" font-family="Times,serif" font-size="10.00" fill="#e2e8f0">AssetID.h</text>
</g>
<!-- AssetLookup.h&#45;&gt;AssetID.h -->
<g id="edge11" class="edge">
<title>AssetLookup.h&#45;&gt;AssetID.h</title>
<path fill="none" stroke="#718096" d="M784.75,-383.24C865.86,-357.41 1013.84,-310.27 1079.33,-289.41"/>
<polygon fill="#718096" stroke="#718096" points="783.66,-379.91 775.2,-386.28 785.79,-386.58 783.66,-379.91"/>
</g>
<!-- AssetID.h&#45;&gt;SerialManager.h -->
<g id="edge12" class="edge">
<title>AssetID.h&#45;&gt;SerialManager.h</title>
<path fill="none" stroke="#718096" d="M1129.49,-251.5C1145.59,-228.03 1169.03,-193.85 1183.08,-173.38"/>
<polygon fill="#718096" stroke="#718096" points="1126.49,-249.69 1123.72,-259.92 1132.26,-253.65 1126.49,-249.69"/>
</g>
<!-- VulkanEngine.h -->
<g id="node16" class="node">
<title>VulkanEngine.h</title>
<polygon fill="#2d3748" stroke="#4a5568" points="465,-1285 367,-1285 367,-1249 465,-1249 465,-1285"/>
<text text-anchor="middle" x="416" y="-1264.5" font-family="Times,serif" font-size="10.00" fill="#e2e8f0">VulkanEngine.h</text>
</g>
<!-- VulkanEngine.h&#45;&gt;Material.h -->
<g id="edge15" class="edge">
<title>VulkanEngine.h&#45;&gt;Material.h</title>
<path fill="none" stroke="#718096" d="M464.46,-1244.29C497.63,-1226.75 539.53,-1198.77 562,-1161 636.27,-1036.15 620.48,-848.82 613.41,-791.37"/>
<polygon fill="#718096" stroke="#718096" points="462.66,-1241.28 455.36,-1248.96 465.85,-1247.51 462.66,-1241.28"/>
</g>
<!-- VulkanEngine.h&#45;&gt;EngineResources.h -->
<g id="edge13" class="edge">
<title>VulkanEngine.h&#45;&gt;EngineResources.h</title>
<path fill="none" stroke="#718096" d="M373.15,-1243.71C341.4,-1225.29 299.12,-1196.45 272,-1161 178.03,-1038.16 137.51,-848.69 126.94,-791.15"/>
<polygon fill="#718096" stroke="#718096" points="371.79,-1246.97 382.21,-1248.86 375.24,-1240.88 371.79,-1246.97"/>
</g>
<!-- VulkanEngine.h&#45;&gt;VulkanTypes.h -->
<g id="edge14" class="edge">
<title>VulkanEngine.h&#45;&gt;VulkanTypes.h</title>
<path fill="none" stroke="#ffd700" stroke-width="2" d="M433.13,-1240.25C460.24,-1196.92 510,-1105.85 510,-1021 510,-1021 510,-1021 510,-772 510,-481.96 462.88,-130.12 451.47,-49.17"/>
<polygon fill="#ffd700" stroke="#ffd700" stroke-width="2" points="430.14,-1238.43 427.72,-1248.75 436.04,-1242.19 430.14,-1238.43"/>
</g>
<!-- VulkanEngine.h&#45;&gt;PassManager.h -->
<g id="edge16" class="edge">
<title>VulkanEngine.h&#45;&gt;PassManager.h</title>
<path fill="none" stroke="#ffd700" stroke-width="2" d="M449.52,-1242.68C474.19,-1223.64 506.38,-1194.47 524,-1161 553.41,-1105.14 548,-1084.13 548,-1021 548,-1021 548,-1021 548,-895 548,-807.95 576.97,-706.56 589.42,-667.01"/>
<polygon fill="#ffd700" stroke="#ffd700" stroke-width="2" points="447.36,-1239.93 441.48,-1248.74 451.57,-1245.52 447.36,-1239.93"/>
</g>
<!-- VulkanEngine.h&#45;&gt;Descriptors.h -->
<g id="edge17" class="edge">
<title>VulkanEngine.h&#45;&gt;Descriptors.h</title>
<path fill="none" stroke="#718096" d="M393.63,-1241.19C376.82,-1221.07 354.75,-1191.19 343,-1161 320.22,-1102.48 324,-1083.79 324,-1021 324,-1021 324,-1021 324,-772 324,-686.13 327.7,-583.45 329.29,-543.29"/>
<polygon fill="#718096" stroke="#718096" points="391.08,-1243.6 400.23,-1248.93 396.4,-1239.05 391.08,-1243.6"/>
</g>
<!-- CommonTextures.h -->
<g id="node19" class="node">
<title>CommonTextures.h</title>
<polygon fill="#2d3748" stroke="#4a5568" points="163,-1038 47,-1038 47,-1002 163,-1002 163,-1038"/>
<text text-anchor="middle" x="105" y="-1017.5" font-family="Times,serif" font-size="10.00" fill="#e2e8f0">CommonTextures.h</text>
</g>
<!-- VulkanEngine.h&#45;&gt;CommonTextures.h -->
<g id="edge18" class="edge">
<title>VulkanEngine.h&#45;&gt;CommonTextures.h</title>
<path fill="none" stroke="#718096" d="M361.42,-1245C318.72,-1226.88 259.35,-1197.83 215,-1161 170.77,-1124.27 132.74,-1067.01 115.26,-1038.44"/>
<polygon fill="#718096" stroke="#718096" points="360.24,-1248.3 370.81,-1248.92 362.94,-1241.84 360.24,-1248.3"/>
</g>
<!-- VulkanEngine.h&#45;&gt;PassDirectory.h -->
<g id="edge19" class="edge">
<title>VulkanEngine.h&#45;&gt;PassDirectory.h</title>
<path fill="none" stroke="#718096" d="M473.3,-1245.38C539.19,-1221.67 646.14,-1183.18 707.56,-1161.07"/>
<polygon fill="#718096" stroke="#718096" points="471.72,-1242.23 463.49,-1248.91 474.09,-1248.81 471.72,-1242.23"/>
</g>
<!-- Image.h -->
<g id="node21" class="node">
<title>Image.h</title>
<polygon fill="#2d3748" stroke="#4a5568" points="288.5,-420 229.5,-420 229.5,-384 288.5,-384 288.5,-420"/>
<text text-anchor="middle" x="259" y="-399.5" font-family="Times,serif" font-size="10.00" fill="#e2e8f0">Image.h</text>
</g>
<!-- VulkanEngine.h&#45;&gt;Image.h -->
<g id="edge20" class="edge">
<title>VulkanEngine.h&#45;&gt;Image.h</title>
<path fill="none" stroke="#ffd700" stroke-width="2" d="M390.47,-1241.56C370.9,-1221.55 344.52,-1191.63 328,-1161 297.17,-1103.82 286,-1085.96 286,-1021 286,-1021 286,-1021 286,-772 286,-636.15 267.57,-472.9 261.16,-420.26"/>
<polygon fill="#ffd700" stroke="#ffd700" stroke-width="2" points="388.07,-1244.11 397.61,-1248.72 393.03,-1239.17 388.07,-1244.11"/>
</g>
<!-- Camera.h -->
<g id="node22" class="node">
<title>Camera.h</title>
<polygon fill="#2d3748" stroke="#4a5568" points="418,-1161 352,-1161 352,-1125 418,-1125 418,-1161"/>
<text text-anchor="middle" x="385" y="-1140.5" font-family="Times,serif" font-size="10.00" fill="#e2e8f0">Camera.h</text>
</g>
<!-- VulkanEngine.h&#45;&gt;Camera.h -->
<g id="edge21" class="edge">
<title>VulkanEngine.h&#45;&gt;Camera.h</title>
<path fill="none" stroke="#718096" d="M409.13,-1238.97C403.09,-1215.21 394.49,-1181.35 389.35,-1161.13"/>
<polygon fill="#718096" stroke="#718096" points="405.77,-1239.95 411.62,-1248.78 412.55,-1238.23 405.77,-1239.95"/>
</g>
<!-- CommonSetLayouts.h -->
<g id="node23" class="node">
<title>CommonSetLayouts.h</title>
<polygon fill="#2d3748" stroke="#4a5568" points="481.5,-667 352.5,-667 352.5,-631 481.5,-631 481.5,-667"/>
<text text-anchor="middle" x="417" y="-646.5" font-family="Times,serif" font-size="10.00" fill="#e2e8f0">CommonSetLayouts.h</text>
</g>
<!-- VulkanEngine.h&#45;&gt;CommonSetLayouts.h -->
<g id="edge22" class="edge">
<title>VulkanEngine.h&#45;&gt;CommonSetLayouts.h</title>
<path fill="none" stroke="#718096" d="M421.49,-1239C430.15,-1194 446,-1100.74 446,-1021 446,-1021 446,-1021 446,-895 446,-808.91 428.12,-706.97 420.44,-667.15"/>
<polygon fill="#718096" stroke="#718096" points="418.05,-1238.37 419.56,-1248.86 424.92,-1239.72 418.05,-1238.37"/>
</g>
<!-- PassManager.h&#45;&gt;PassMesh.h -->
<g id="edge24" class="edge">
<title>PassManager.h&#45;&gt;PassMesh.h</title>
<path fill="none" stroke="#f56565" stroke-width="2" d="M582.24,-621.43C559.64,-570.11 519.67,-456.07 572,-384 627.87,-307.04 747.69,-286.48 809.45,-280.99"/>
<polygon fill="#f56565" stroke="#f56565" stroke-width="2" points="579.18,-623.16 586.49,-630.83 585.55,-620.28 579.18,-623.16"/>
</g>
<!-- PassInstance.h -->
<g id="node24" class="node">
<title>PassInstance.h</title>
<polygon fill="#2d3748" stroke="#4a5568" points="809,-543 717,-543 717,-507 809,-507 809,-543"/>
<text text-anchor="middle" x="763" y="-522.5" font-family="Times,serif" font-size="10.00" fill="#e2e8f0">PassInstance.h</text>
</g>
<!-- PassManager.h&#45;&gt;PassInstance.h -->
<g id="edge25" class="edge">
<title>PassManager.h&#45;&gt;PassInstance.h</title>
<path fill="none" stroke="#718096" d="M627.06,-624.71C659.87,-600.89 710.07,-564.44 739.41,-543.13"/>
<polygon fill="#718096" stroke="#718096" points="624.75,-622.07 618.71,-630.78 628.86,-627.74 624.75,-622.07"/>
</g>
<!-- Descriptors.h&#45;&gt;VulkanTypes.h -->
<g id="edge32" class="edge">
<title>Descriptors.h&#45;&gt;VulkanTypes.h</title>
<path fill="none" stroke="#ffd700" stroke-width="2" d="M325.14,-496.97C314.72,-431.84 295.27,-262.33 349,-137 364.97,-99.75 400.41,-67.82 424.51,-49.26"/>
<polygon fill="#ffd700" stroke="#ffd700" stroke-width="2" points="321.69,-497.56 326.79,-506.85 328.6,-496.41 321.69,-497.56"/>
</g>
<!-- Descriptors.h&#45;&gt;Image.h -->
<g id="edge34" class="edge">
<title>Descriptors.h&#45;&gt;Image.h</title>
<path fill="none" stroke="#718096" d="M314.86,-498.19C301.09,-474.73 281.16,-440.76 269.2,-420.38"/>
<polygon fill="#718096" stroke="#718096" points="311.9,-500.07 319.98,-506.92 317.94,-496.52 311.9,-500.07"/>
</g>
<!-- Descriptors.h&#45;&gt;Buffer.h -->
<g id="edge33" class="edge">
<title>Descriptors.h&#45;&gt;Buffer.h</title>
<path fill="none" stroke="#718096" d="M336.69,-496.66C354.27,-424.78 401.42,-231.96 415.79,-173.22"/>
<polygon fill="#718096" stroke="#718096" points="333.2,-496.2 334.22,-506.74 340,-497.86 333.2,-496.2"/>
</g>
<!-- CommonTextures.h&#45;&gt;Image.h -->
<g id="edge45" class="edge">
<title>CommonTextures.h&#45;&gt;Image.h</title>
<path fill="none" stroke="#718096" d="M92.84,-992.75C73.52,-948.59 38,-856.2 38,-774 38,-774 38,-774 38,-648 38,-535.15 168.87,-450.9 229.19,-418.06"/>
<polygon fill="#718096" stroke="#718096" points="89.65,-994.2 96.92,-1001.91 96.05,-991.35 89.65,-994.2"/>
</g>
<!-- PassData.h -->
<g id="node29" class="node">
<title>PassData.h</title>
<polygon fill="#2d3748" stroke="#4a5568" points="1014.5,-1038 941.5,-1038 941.5,-1002 1014.5,-1002 1014.5,-1038"/>
<text text-anchor="middle" x="978" y="-1017.5" font-family="Times,serif" font-size="10.00" fill="#e2e8f0">PassData.h</text>
</g>
<!-- PassDirectory.h&#45;&gt;PassData.h -->
<g id="edge51" class="edge">
<title>PassDirectory.h&#45;&gt;PassData.h</title>
<path fill="none" stroke="#718096" d="M795.33,-1120.12C838.67,-1096.6 906.66,-1059.71 946.32,-1038.19"/>
<polygon fill="#718096" stroke="#718096" points="793.6,-1117.07 786.48,-1124.92 796.94,-1123.23 793.6,-1117.07"/>
</g>
<!-- shader_descriptors.h -->
<g id="node36" class="node">
<title>shader_descriptors.h</title>
<polygon fill="#2d3748" stroke="#4a5568" points="699,-543 575,-543 575,-507 699,-507 699,-543"/>
<text text-anchor="middle" x="637" y="-522.5" font-family="Times,serif" font-size="10.00" fill="#e2e8f0">shader_descriptors.h</text>
</g>
<!-- PassDirectory.h&#45;&gt;shader_descriptors.h -->
<g id="edge52" class="edge">
<title>PassDirectory.h&#45;&gt;shader_descriptors.h</title>
<path fill="none" stroke="#718096" d="M741.93,-1115.85C721.17,-1071.83 683,-979.64 683,-897 683,-897 683,-897 683,-772 683,-684.67 654.64,-582.82 642.46,-543.09"/>
<polygon fill="#718096" stroke="#718096" points="738.83,-1117.48 746.32,-1124.98 745.14,-1114.45 738.83,-1117.48"/>
</g>
<!-- DefaultPass.h -->
<g id="node38" class="node">
<title>DefaultPass.h</title>
<polygon fill="#2d3748" stroke="#4a5568" points="806,-667 720,-667 720,-631 806,-631 806,-667"/>
<text text-anchor="middle" x="763" y="-646.5" font-family="Times,serif" font-size="10.00" fill="#e2e8f0">DefaultPass.h</text>
</g>
<!-- PassDirectory.h&#45;&gt;DefaultPass.h -->
<g id="edge53" class="edge">
<title>PassDirectory.h&#45;&gt;DefaultPass.h</title>
<path fill="none" stroke="#718096" d="M755.45,-1114.56C756.91,-1024.55 761.54,-739.87 762.72,-667.08"/>
<polygon fill="#718096" stroke="#718096" points="751.94,-1114.72 755.28,-1124.78 758.94,-1114.84 751.94,-1114.72"/>
</g>
<!-- CommonSetLayouts.h&#45;&gt;VulkanTypes.h -->
<g id="edge61" class="edge">
<title>CommonSetLayouts.h&#45;&gt;VulkanTypes.h</title>
<path fill="none" stroke="#ffd700" stroke-width="2" d="M408.68,-620.87C386.3,-543.45 329.89,-315.54 382,-137 392.06,-102.54 417.24,-68.62 433.71,-49.03"/>
<polygon fill="#ffd700" stroke="#ffd700" stroke-width="2" points="405.42,-622.17 411.6,-630.78 412.13,-620.2 405.42,-622.17"/>
</g>
<!-- CommonSetLayouts.h&#45;&gt;shader_descriptors.h -->
<g id="edge62" class="edge">
<title>CommonSetLayouts.h&#45;&gt;shader_descriptors.h</title>
<path fill="none" stroke="#718096" d="M456.82,-625.92C499.7,-602.14 567.04,-564.8 606.1,-543.13"/>
<polygon fill="#718096" stroke="#718096" points="455.1,-622.87 448.05,-630.78 458.5,-628.99 455.1,-622.87"/>
</g>
<!-- Pass.h -->
<g id="node40" class="node">
<title>Pass.h</title>
<polygon fill="#2d3748" stroke="#4a5568" points="847,-420 793,-420 793,-384 847,-384 847,-420"/>
<text text-anchor="middle" x="820" y="-399.5" font-family="Times,serif" font-size="10.00" fill="#e2e8f0">Pass.h</text>
</g>
<!-- PassInstance.h&#45;&gt;Pass.h -->
<g id="edge72" class="edge">
<title>PassInstance.h&#45;&gt;Pass.h</title>
<path fill="none" stroke="#718096" d="M775.45,-497.57C786.49,-474.13 802.29,-440.58 811.81,-420.38"/>
<polygon fill="#718096" stroke="#718096" points="772.14,-496.38 771.05,-506.92 778.47,-499.37 772.14,-496.38"/>
</g>
<!-- array.h&#45;&gt;SerialManager.h -->
<g id="edge54" class="edge">
<title>array.h&#45;&gt;SerialManager.h</title>
<path fill="none" stroke="#718096" d="M1042.61,-872.63C1116.37,-825.02 1279,-712.9 1279,-650 1279,-650 1279,-650 1279,-401 1279,-311.07 1227.73,-212.12 1205.3,-173.13"/>
<polygon fill="#718096" stroke="#718096" points="1040.6,-869.76 1034.07,-878.1 1044.38,-875.65 1040.6,-869.76"/>
</g>
<!-- Pipelines.h -->
<g id="node26" class="node">
<title>Pipelines.h</title>
<polygon fill="#2d3748" stroke="#4a5568" points="1082.5,-543 1009.5,-543 1009.5,-507 1082.5,-507 1082.5,-543"/>
<text text-anchor="middle" x="1046" y="-522.5" font-family="Times,serif" font-size="10.00" fill="#e2e8f0">Pipelines.h</text>
</g>
<!-- Pipelines.h&#45;&gt;VulkanTypes.h -->
<g id="edge29" class="edge">
<title>Pipelines.h&#45;&gt;VulkanTypes.h</title>
<path fill="none" stroke="#ffd700" stroke-width="2" d="M1036.78,-497.54C1017.65,-445.93 969.14,-330.73 895,-260 773.72,-144.29 582.23,-73.57 495.01,-45.69"/>
<polygon fill="#ffd700" stroke="#ffd700" stroke-width="2" points="1033.51,-498.78 1040.21,-506.98 1040.08,-496.39 1033.51,-498.78"/>
</g>
<!-- ShaderAssetData.h -->
<g id="node27" class="node">
<title>ShaderAssetData.h</title>
<polygon fill="#2d3748" stroke="#4a5568" points="1132.5,-420 1017.5,-420 1017.5,-384 1132.5,-384 1132.5,-420"/>
<text text-anchor="middle" x="1075" y="-399.5" font-family="Times,serif" font-size="10.00" fill="#e2e8f0">ShaderAssetData.h</text>
</g>
<!-- Pipelines.h&#45;&gt;ShaderAssetData.h -->
<g id="edge30" class="edge">
<title>Pipelines.h&#45;&gt;ShaderAssetData.h</title>
<path fill="none" stroke="#718096" d="M1052.49,-496.94C1058.1,-473.53 1066.04,-440.4 1070.83,-420.38"/>
<polygon fill="#718096" stroke="#718096" points="1049.02,-496.38 1050.09,-506.92 1055.83,-498.01 1049.02,-496.38"/>
</g>
<!-- ShaderAssetData.h&#45;&gt;VulkanTypes.h -->
<g id="edge49" class="edge">
<title>ShaderAssetData.h&#45;&gt;VulkanTypes.h</title>
<path fill="none" stroke="#718096" d="M1071.24,-373.68C1062.32,-312.9 1037.97,-169.32 1003,-137 928.85,-68.49 614.58,-42.22 495.24,-34.59"/>
<polygon fill="#718096" stroke="#718096" points="1067.79,-374.29 1072.68,-383.69 1074.72,-373.29 1067.79,-374.29"/>
</g>
<!-- ShaderAssetData.h&#45;&gt;AssetID.h -->
<g id="edge50" class="edge">
<title>ShaderAssetData.h&#45;&gt;AssetID.h</title>
<path fill="none" stroke="#718096" d="M1083.2,-373.97C1090.4,-350.21 1100.67,-316.35 1106.8,-296.13"/>
<polygon fill="#718096" stroke="#718096" points="1079.78,-373.19 1080.22,-383.78 1086.47,-375.23 1079.78,-373.19"/>
</g>
<!-- Buffer.h&#45;&gt;VulkanTypes.h -->
<g id="edge43" class="edge">
<title>Buffer.h&#45;&gt;VulkanTypes.h</title>
<path fill="none" stroke="#718096" d="M426.43,-126.97C432.07,-103.21 440.12,-69.35 444.93,-49.13"/>
<polygon fill="#718096" stroke="#718096" points="423,-126.24 424.09,-136.78 429.81,-127.86 423,-126.24"/>
</g>
<!-- PassData.h&#45;&gt;ComponentTypeInfo.h -->
<g id="edge35" class="edge">
<title>PassData.h&#45;&gt;ComponentTypeInfo.h</title>
<path fill="none" stroke="#718096" d="M1005.42,-995.1C1032.77,-971.27 1074.1,-935.25 1098.34,-914.13"/>
<polygon fill="#718096" stroke="#718096" points="1003,-992.57 997.76,-1001.78 1007.6,-997.85 1003,-992.57"/>
</g>
<!-- PassData.h&#45;&gt;array.h -->
<g id="edge36" class="edge">
<title>PassData.h&#45;&gt;array.h</title>
<path fill="none" stroke="#718096" d="M984.43,-991.97C990.07,-968.21 998.12,-934.35 1002.93,-914.13"/>
<polygon fill="#718096" stroke="#718096" points="981,-991.24 982.09,-1001.78 987.81,-992.86 981,-991.24"/>
</g>
<!-- ImguiOverlay.h -->
<g id="node30" class="node">
<title>ImguiOverlay.h</title>
<polygon fill="#2d3748" stroke="#4a5568" points="202.5,-1409 107.5,-1409 107.5,-1373 202.5,-1373 202.5,-1409"/>
<text text-anchor="middle" x="155" y="-1388.5" font-family="Times,serif" font-size="10.00" fill="#e2e8f0">ImguiOverlay.h</text>
</g>
<!-- ImguiOverlay.h&#45;&gt;EngineResources.h -->
<g id="edge37" class="edge">
<title>ImguiOverlay.h&#45;&gt;EngineResources.h</title>
<path fill="none" stroke="#718096" d="M126.8,-1366.15C82.1,-1325.5 0,-1238.05 0,-1144 0,-1144 0,-1144 0,-1019 0,-924.37 74.55,-829.19 108.04,-791.21"/>
<polygon fill="#718096" stroke="#718096" points="124.63,-1368.9 134.42,-1372.95 129.29,-1363.68 124.63,-1368.9"/>
</g>
<!-- AssetManager.h -->
<g id="node31" class="node">
<title>AssetManager.h</title>
<polygon fill="#2d3748" stroke="#4a5568" points="1251,-420 1151,-420 1151,-384 1251,-384 1251,-420"/>
<text text-anchor="middle" x="1201" y="-399.5" font-family="Times,serif" font-size="10.00" fill="#e2e8f0">AssetManager.h</text>
</g>
<!-- AssetManager.h&#45;&gt;AssetID.h -->
<g id="edge38" class="edge">
<title>AssetManager.h&#45;&gt;AssetID.h</title>
<path fill="none" stroke="#718096" d="M1182.44,-375.55C1165.06,-351.73 1139.58,-316.8 1124.5,-296.13"/>
<polygon fill="#718096" stroke="#718096" points="1179.72,-377.76 1188.44,-383.78 1185.37,-373.64 1179.72,-377.76"/>
</g>
<!-- AssetFile.h -->
<g id="node32" class="node">
<title>AssetFile.h</title>
<polygon fill="#2d3748" stroke="#4a5568" points="1237.5,-296 1164.5,-296 1164.5,-260 1237.5,-260 1237.5,-296"/>
<text text-anchor="middle" x="1201" y="-275.5" font-family="Times,serif" font-size="10.00" fill="#e2e8f0">AssetFile.h</text>
</g>
<!-- AssetManager.h&#45;&gt;AssetFile.h -->
<g id="edge39" class="edge">
<title>AssetManager.h&#45;&gt;AssetFile.h</title>
<path fill="none" stroke="#718096" d="M1201,-373.65C1201,-349.9 1201,-316.26 1201,-296.13"/>
<polygon fill="#718096" stroke="#718096" points="1197.5,-373.78 1201,-383.78 1204.5,-373.78 1197.5,-373.78"/>
</g>
<!-- shader_descriptors.h&#45;&gt;VulkanTypes.h -->
<g id="edge46" class="edge">
<title>shader_descriptors.h&#45;&gt;VulkanTypes.h</title>
<path fill="none" stroke="#718096" d="M618.16,-498.41C603.86,-478.02 584.59,-448.3 572,-420 518.81,-300.47 533.35,-260.78 491,-137 480.26,-105.61 465.4,-69.9 456.53,-49.26"/>
<polygon fill="#718096" stroke="#718096" points="615.49,-500.69 624.14,-506.81 621.19,-496.63 615.49,-500.69"/>
</g>
<!-- shader_descriptors.h&#45;&gt;AssetLookup.h -->
<g id="edge47" class="edge">
<title>shader_descriptors.h&#45;&gt;AssetLookup.h</title>
<path fill="none" stroke="#718096" d="M656.15,-498.81C674,-475.33 700.15,-440.95 715.78,-420.38"/>
<polygon fill="#718096" stroke="#718096" points="653.25,-496.84 649.99,-506.92 658.82,-501.08 653.25,-496.84"/>
</g>
<!-- VulkanNew.h -->
<g id="node37" class="node">
<title>VulkanNew.h</title>
<polygon fill="#2d3748" stroke="#4a5568" points="665,-420 581,-420 581,-384 665,-384 665,-420"/>
<text text-anchor="middle" x="623" y="-399.5" font-family="Times,serif" font-size="10.00" fill="#e2e8f0">VulkanNew.h</text>
</g>
<!-- shader_descriptors.h&#45;&gt;VulkanNew.h -->
<g id="edge48" class="edge">
<title>shader_descriptors.h&#45;&gt;VulkanNew.h</title>
<path fill="none" stroke="#718096" d="M633.87,-496.94C631.16,-473.53 627.33,-440.4 625.01,-420.38"/>
<polygon fill="#718096" stroke="#718096" points="630.4,-497.39 635.02,-506.92 637.35,-496.58 630.4,-497.39"/>
</g>
<!-- DefaultPass.h&#45;&gt;PassMesh.h -->
<g id="edge64" class="edge">
<title>DefaultPass.h&#45;&gt;PassMesh.h</title>
<path fill="none" stroke="#ffd700" stroke-width="2" d="M784.78,-623.02C801.19,-602.81 822.89,-572.89 835,-543 870.25,-456.03 857.48,-339.54 850.91,-296.19"/>
<polygon fill="#ffd700" stroke="#ffd700" stroke-width="2" points="782.02,-620.87 778.33,-630.8 787.41,-625.34 782.02,-620.87"/>
</g>
<!-- DefaultPass.h&#45;&gt;Descriptors.h -->
<g id="edge63" class="edge">
<title>DefaultPass.h&#45;&gt;Descriptors.h</title>
<path fill="none" stroke="#718096" d="M710.25,-633.14C623.46,-608.68 452.25,-560.44 372.61,-538"/>
<polygon fill="#718096" stroke="#718096" points="709.32,-636.51 719.9,-635.86 711.22,-629.78 709.32,-636.51"/>
</g>
<!-- DefaultPass.h&#45;&gt;PassInstance.h -->
<g id="edge66" class="edge">
<title>DefaultPass.h&#45;&gt;PassInstance.h</title>
<path fill="none" stroke="#718096" d="M763,-620.65C763,-596.9 763,-563.26 763,-543.13"/>
<polygon fill="#718096" stroke="#718096" points="759.5,-620.78 763,-630.78 766.5,-620.78 759.5,-620.78"/>
</g>
<!-- DefaultPass.h&#45;&gt;Pass.h -->
<g id="edge65" class="edge">
<title>DefaultPass.h&#45;&gt;Pass.h</title>
<path fill="none" stroke="#ffd700" stroke-width="2" d="M780.79,-622.41C793.88,-601.96 810.64,-572.02 818,-543 828.94,-499.88 825.26,-446.87 822.27,-420.14"/>
<polygon fill="#ffd700" stroke="#ffd700" stroke-width="2" points="777.82,-620.55 775.26,-630.83 783.67,-624.39 777.82,-620.55"/>
</g>
<!-- PassMeshManager.h -->
<g id="node39" class="node">
<title>PassMeshManager.h</title>
<polygon fill="#2d3748" stroke="#4a5568" points="813.5,-1285 690.5,-1285 690.5,-1249 813.5,-1249 813.5,-1285"/>
<text text-anchor="middle" x="752" y="-1264.5" font-family="Times,serif" font-size="10.00" fill="#e2e8f0">PassMeshManager.h</text>
</g>
<!-- PassMeshManager.h&#45;&gt;PassDirectory.h -->
<g id="edge60" class="edge">
<title>PassMeshManager.h&#45;&gt;PassDirectory.h</title>
<path fill="none" stroke="#718096" d="M752.67,-1238.65C753.26,-1214.9 754.08,-1181.26 754.58,-1161.13"/>
<polygon fill="#718096" stroke="#718096" points="749.17,-1238.7 752.42,-1248.78 756.17,-1238.87 749.17,-1238.7"/>
</g>
<!-- Pass.h&#45;&gt;PassMesh.h -->
<g id="edge70" class="edge">
<title>Pass.h&#45;&gt;PassMesh.h</title>
<path fill="none" stroke="#718096" d="M826.2,-373.97C831.66,-350.21 839.43,-316.35 844.07,-296.13"/>
<polygon fill="#718096" stroke="#718096" points="822.78,-373.25 823.95,-383.78 829.6,-374.82 822.78,-373.25"/>
</g>
<!-- Core.h -->
<g id="node41" class="node">
<title>Core.h</title>
<polygon fill="#2d3748" stroke="#4a5568" points="443,-1532 389,-1532 389,-1496 443,-1496 443,-1532"/>
<text text-anchor="middle" x="416" y="-1511.5" font-family="Times,serif" font-size="10.00" fill="#e2e8f0">Core.h</text>
</g>
<!-- Core.h&#45;&gt;EngineAliases.h -->
<g id="edge67" class="edge">
<title>Core.h&#45;&gt;EngineAliases.h</title>
<path fill="none" stroke="#718096" d="M453.04,-1504.02C541.53,-1482.56 765.28,-1428.3 865.33,-1404.05"/>
<polygon fill="#718096" stroke="#718096" points="452.08,-1500.65 443.18,-1506.41 453.73,-1507.45 452.08,-1500.65"/>
</g>
<!-- Core.h&#45;&gt;VulkanEngine.h -->
<g id="edge68" class="edge">
<title>Core.h&#45;&gt;VulkanEngine.h</title>
<path fill="none" stroke="#718096" d="M416,-1485.53C416,-1434.65 416,-1327.1 416,-1285.21"/>
<polygon fill="#718096" stroke="#718096" points="412.5,-1485.77 416,-1495.77 419.5,-1485.77 412.5,-1485.77"/>
</g>
<!-- Core.h&#45;&gt;ImguiOverlay.h -->
<g id="edge69" class="edge">
<title>Core.h&#45;&gt;ImguiOverlay.h</title>
<path fill="none" stroke="#718096" d="M379.48,-1496.07C329.94,-1473.1 241.91,-1432.29 192.07,-1409.19"/>
<polygon fill="#718096" stroke="#718096" points="378.02,-1499.25 388.56,-1500.28 380.96,-1492.9 378.02,-1499.25"/>
</g>
<!-- Serial.h -->
<g id="node42" class="node">
<title>Serial.h</title>
<polygon fill="#2d3748" stroke="#4a5568" points="1163,-1409 1107,-1409 1107,-1373 1163,-1373 1163,-1409"/>
<text text-anchor="middle" x="1135" y="-1388.5" font-family="Times,serif" font-size="10.00" fill="#e2e8f0">Serial.h</text>
</g>
<!-- Serial.h&#45;&gt;Engine.h -->
<g id="edge71" class="edge">
<title>Serial.h&#45;&gt;Engine.h</title>
<path fill="none" stroke="#718096" d="M1135,-1362.65C1135,-1338.9 1135,-1305.26 1135,-1285.13"/>
<polygon fill="#718096" stroke="#718096" points="1131.5,-1362.78 1135,-1372.78 1138.5,-1362.78 1131.5,-1362.78"/>
</g>
<!-- OLD_loader.h -->
<g id="node43" class="node">
<title>OLD_loader.h</title>
<polygon fill="#2d3748" stroke="#4a5568" points="459,-1656 373,-1656 373,-1620 459,-1620 459,-1656"/>
<text text-anchor="middle" x="416" y="-1635.5" font-family="Times,serif" font-size="10.00" fill="#e2e8f0">OLD_loader.h</text>
</g>
<!-- OLD_loader.h&#45;&gt;Core.h -->
<g id="edge73" class="edge">
<title>OLD_loader.h&#45;&gt;Core.h</title>
<path fill="none" stroke="#718096" d="M416,-1609.65C416,-1585.9 416,-1552.26 416,-1532.13"/>
<polygon fill="#718096" stroke="#718096" points="412.5,-1609.78 416,-1619.78 419.5,-1609.78 412.5,-1609.78"/>
</g>
</g>
</svg>
