<?xml version="1.0" encoding="UTF-8" standalone="no"?>
<!DOCTYPE svg PUBLIC "-//W3C//DTD SVG 1.1//EN"
 "http://www.w3.org/Graphics/SVG/1.1/DTD/svg11.dtd">
<!-- Generated by graphviz version 2.43.0 (0)
 -->
<!-- Title: source tree Pages: 1 -->
<svg width="576pt" height="719pt"
 viewBox="0.00 0.00 576.00 718.68" xmlns="http://www.w3.org/2000/svg" xmlns:xlink="http://www.w3.org/1999/xlink">
<g id="graph0" class="graph" transform="scale(0.5 0.5) rotate(0) translate(4 1422.75)">
<title>source tree</title>
<polygon fill="#1e1e1e" stroke="transparent" points="-4,4 -4,-1422.75 1139.5,-1422.75 1139.5,4 -4,4"/>
<!-- AssetManager.h -->
<g id="node1" class="node">
<title>AssetManager.h</title>
<polygon fill="#2d3748" stroke="#4a5568" points="100,-457 0,-457 0,-421 100,-421 100,-457"/>
<text text-anchor="middle" x="50" y="-436.5" font-family="Times,serif" font-size="10.00" fill="#e2e8f0">AssetManager.h</text>
</g>
<!-- AssetID.h -->
<g id="node2" class="node">
<title>AssetID.h</title>
<polygon fill="#2d3748" stroke="#4a5568" points="359.5,-322 294.5,-322 294.5,-286 359.5,-286 359.5,-322"/>
<text text-anchor="middle" x="327" y="-301.5" font-family="Times,serif" font-size="10.00" fill="#e2e8f0">AssetID.h</text>
</g>
<!-- AssetManager.h&#45;&gt;AssetID.h -->
<g id="edge1" class="edge">
<title>AssetManager.h&#45;&gt;AssetID.h</title>
<path fill="none" stroke="#718096" d="M94.93,-416.43C150.71,-389.64 244.54,-344.59 294.08,-320.81"/>
<polygon fill="#718096" stroke="#718096" points="93.15,-413.4 85.65,-420.88 96.18,-419.71 93.15,-413.4"/>
</g>
<!-- AssetFile.h -->
<g id="node3" class="node">
<title>AssetFile.h</title>
<polygon fill="#2d3748" stroke="#4a5568" points="86.5,-322 13.5,-322 13.5,-286 86.5,-286 86.5,-322"/>
<text text-anchor="middle" x="50" y="-301.5" font-family="Times,serif" font-size="10.00" fill="#e2e8f0">AssetFile.h</text>
</g>
<!-- AssetManager.h&#45;&gt;AssetFile.h -->
<g id="edge2" class="edge">
<title>AssetManager.h&#45;&gt;AssetFile.h</title>
<path fill="none" stroke="#718096" d="M50,-410.71C50,-384.1 50,-344.46 50,-322.05"/>
<polygon fill="#718096" stroke="#718096" points="46.5,-410.88 50,-420.88 53.5,-410.88 46.5,-410.88"/>
</g>
<!-- SerialManager.h -->
<g id="node4" class="node">
<title>SerialManager.h</title>
<polygon fill="#2d3748" stroke="#4a5568" points="852.5,-187 751.5,-187 751.5,-151 852.5,-151 852.5,-187"/>
<text text-anchor="middle" x="802" y="-166.5" font-family="Times,serif" font-size="10.00" fill="#e2e8f0">SerialManager.h</text>
</g>
<!-- AssetID.h&#45;&gt;SerialManager.h -->
<g id="edge3" class="edge">
<title>AssetID.h&#45;&gt;SerialManager.h</title>
<path fill="none" stroke="#718096" d="M369.51,-291.1C457.1,-266.57 657.35,-210.5 751.42,-184.16"/>
<polygon fill="#718096" stroke="#718096" points="368.33,-287.79 359.65,-293.86 370.22,-294.53 368.33,-287.79"/>
</g>
<!-- SerialConcepts.h -->
<g id="node6" class="node">
<title>SerialConcepts.h</title>
<polygon fill="#2d3748" stroke="#4a5568" points="1020.5,-52 917.5,-52 917.5,-16 1020.5,-16 1020.5,-52"/>
<text text-anchor="middle" x="969" y="-31.5" font-family="Times,serif" font-size="10.00" fill="#e2e8f0">SerialConcepts.h</text>
</g>
<!-- SerialManager.h&#45;&gt;SerialConcepts.h -->
<g id="edge16" class="edge">
<title>SerialManager.h&#45;&gt;SerialConcepts.h</title>
<path fill="none" stroke="#718096" d="M831.49,-144.51C864.76,-118.01 918.08,-75.56 947.59,-52.05"/>
<polygon fill="#718096" stroke="#718096" points="829.13,-141.92 823.49,-150.88 833.49,-147.39 829.13,-141.92"/>
</g>
<!-- ReadByteStream.h -->
<g id="node17" class="node">
<title>ReadByteStream.h</title>
<polygon fill="#2d3748" stroke="#4a5568" points="741.5,-52 628.5,-52 628.5,-16 741.5,-16 741.5,-52"/>
<text text-anchor="middle" x="685" y="-31.5" font-family="Times,serif" font-size="10.00" fill="#e2e8f0">ReadByteStream.h</text>
</g>
<!-- SerialManager.h&#45;&gt;ReadByteStream.h -->
<g id="edge17" class="edge">
<title>SerialManager.h&#45;&gt;ReadByteStream.h</title>
<path fill="none" stroke="#718096" d="M780.14,-143.15C756.77,-116.58 720.33,-75.16 700,-52.05"/>
<polygon fill="#718096" stroke="#718096" points="777.71,-145.69 786.94,-150.88 782.97,-141.06 777.71,-145.69"/>
</g>
<!-- WriteByteStream.h -->
<g id="node18" class="node">
<title>WriteByteStream.h</title>
<polygon fill="#2d3748" stroke="#4a5568" points="872.5,-52 759.5,-52 759.5,-16 872.5,-16 872.5,-52"/>
<text text-anchor="middle" x="816" y="-31.5" font-family="Times,serif" font-size="10.00" fill="#e2e8f0">WriteByteStream.h</text>
</g>
<!-- SerialManager.h&#45;&gt;WriteByteStream.h -->
<g id="edge18" class="edge">
<title>SerialManager.h&#45;&gt;WriteByteStream.h</title>
<path fill="none" stroke="#718096" d="M804.87,-140.71C807.67,-114.1 811.85,-74.46 814.21,-52.05"/>
<polygon fill="#718096" stroke="#718096" points="801.37,-140.57 803.8,-150.88 808.33,-141.31 801.37,-140.57"/>
</g>
<!-- ComponentConcepts.h -->
<g id="node5" class="node">
<title>ComponentConcepts.h</title>
<polygon fill="#2d3748" stroke="#4a5568" points="1046.5,-457 913.5,-457 913.5,-421 1046.5,-421 1046.5,-457"/>
<text text-anchor="middle" x="980" y="-436.5" font-family="Times,serif" font-size="10.00" fill="#e2e8f0">ComponentConcepts.h</text>
</g>
<!-- ComponentConcepts.h&#45;&gt;SerialConcepts.h -->
<g id="edge4" class="edge">
<title>ComponentConcepts.h&#45;&gt;SerialConcepts.h</title>
<path fill="none" stroke="#718096" d="M979.25,-410.6C977.14,-333.35 971.19,-115.35 969.47,-52.29"/>
<polygon fill="#718096" stroke="#718096" points="975.76,-411.04 979.53,-420.94 982.76,-410.85 975.76,-411.04"/>
</g>
<!-- EntityManager.h -->
<g id="node7" class="node">
<title>EntityManager.h</title>
<polygon fill="#2d3748" stroke="#4a5568" points="1053.5,-862 950.5,-862 950.5,-826 1053.5,-826 1053.5,-862"/>
<text text-anchor="middle" x="1002" y="-841.5" font-family="Times,serif" font-size="10.00" fill="#e2e8f0">EntityManager.h</text>
</g>
<!-- ComponentTypeInfo.h -->
<g id="node8" class="node">
<title>ComponentTypeInfo.h</title>
<polygon fill="#2d3748" stroke="#4a5568" points="950.5,-727 819.5,-727 819.5,-691 950.5,-691 950.5,-727"/>
<text text-anchor="middle" x="885" y="-706.5" font-family="Times,serif" font-size="10.00" fill="#e2e8f0">ComponentTypeInfo.h</text>
</g>
<!-- EntityManager.h&#45;&gt;ComponentTypeInfo.h -->
<g id="edge5" class="edge">
<title>EntityManager.h&#45;&gt;ComponentTypeInfo.h</title>
<path fill="none" stroke="#718096" d="M980.14,-818.15C956.77,-791.58 920.33,-750.16 900,-727.05"/>
<polygon fill="#718096" stroke="#718096" points="977.71,-820.69 986.94,-825.88 982.97,-816.06 977.71,-820.69"/>
</g>
<!-- UpdateQueue.h -->
<g id="node9" class="node">
<title>UpdateQueue.h</title>
<polygon fill="#2d3748" stroke="#4a5568" points="1032,-592 934,-592 934,-556 1032,-556 1032,-592"/>
<text text-anchor="middle" x="983" y="-571.5" font-family="Times,serif" font-size="10.00" fill="#e2e8f0">UpdateQueue.h</text>
</g>
<!-- EntityManager.h&#45;&gt;UpdateQueue.h -->
<g id="edge6" class="edge">
<title>EntityManager.h&#45;&gt;UpdateQueue.h</title>
<path fill="none" stroke="#718096" d="M1000.07,-815.75C996.16,-760.62 987.41,-637.25 984.21,-592.03"/>
<polygon fill="#718096" stroke="#718096" points="996.58,-816.1 1000.78,-825.83 1003.57,-815.61 996.58,-816.1"/>
</g>
<!-- ArchetypeData.h -->
<g id="node10" class="node">
<title>ArchetypeData.h</title>
<polygon fill="#2d3748" stroke="#4a5568" points="1135.5,-727 1032.5,-727 1032.5,-691 1135.5,-691 1135.5,-727"/>
<text text-anchor="middle" x="1084" y="-706.5" font-family="Times,serif" font-size="10.00" fill="#e2e8f0">ArchetypeData.h</text>
</g>
<!-- EntityManager.h&#45;&gt;ArchetypeData.h -->
<g id="edge7" class="edge">
<title>EntityManager.h&#45;&gt;ArchetypeData.h</title>
<path fill="none" stroke="#718096" d="M1017.96,-817.11C1034.36,-790.51 1059.42,-749.86 1073.49,-727.05"/>
<polygon fill="#718096" stroke="#718096" points="1014.82,-815.54 1012.55,-825.88 1020.78,-819.21 1014.82,-815.54"/>
</g>
<!-- ComponentTypeInfo.h&#45;&gt;SerialManager.h -->
<g id="edge9" class="edge">
<title>ComponentTypeInfo.h&#45;&gt;SerialManager.h</title>
<path fill="none" stroke="#718096" d="M885.32,-680.57C885.53,-612.68 882.51,-431.75 848,-286 839.36,-249.53 821.39,-209.38 810.65,-187.17"/>
<polygon fill="#718096" stroke="#718096" points="881.82,-680.81 885.26,-690.83 888.82,-680.85 881.82,-680.81"/>
</g>
<!-- ComponentTypeInfo.h&#45;&gt;ComponentConcepts.h -->
<g id="edge8" class="edge">
<title>ComponentTypeInfo.h&#45;&gt;ComponentConcepts.h</title>
<path fill="none" stroke="#718096" d="M890.55,-680.84C897.2,-650.07 909.43,-598.65 925,-556 938.22,-519.78 958.69,-479.54 970.57,-457.25"/>
<polygon fill="#718096" stroke="#718096" points="887.08,-680.31 888.43,-690.81 893.93,-681.76 887.08,-680.31"/>
</g>
<!-- UpdateQueue.h&#45;&gt;ComponentConcepts.h -->
<g id="edge36" class="edge">
<title>UpdateQueue.h&#45;&gt;ComponentConcepts.h</title>
<path fill="none" stroke="#718096" d="M982.38,-545.71C981.78,-519.1 980.89,-479.46 980.38,-457.05"/>
<polygon fill="#718096" stroke="#718096" points="978.89,-545.97 982.61,-555.88 985.89,-545.81 978.89,-545.97"/>
</g>
<!-- RawArray.h -->
<g id="node37" class="node">
<title>RawArray.h</title>
<polygon fill="#2d3748" stroke="#4a5568" points="1125.5,-592 1050.5,-592 1050.5,-556 1125.5,-556 1125.5,-592"/>
<text text-anchor="middle" x="1088" y="-571.5" font-family="Times,serif" font-size="10.00" fill="#e2e8f0">RawArray.h</text>
</g>
<!-- ArchetypeData.h&#45;&gt;RawArray.h -->
<g id="edge60" class="edge">
<title>ArchetypeData.h&#45;&gt;RawArray.h</title>
<path fill="none" stroke="#718096" d="M1084.82,-680.71C1085.62,-654.1 1086.81,-614.46 1087.49,-592.05"/>
<polygon fill="#718096" stroke="#718096" points="1081.32,-680.78 1084.51,-690.88 1088.31,-680.99 1081.32,-680.78"/>
</g>
<!-- Serial.h -->
<g id="node11" class="node">
<title>Serial.h</title>
<polygon fill="#2d3748" stroke="#4a5568" points="974,-998 918,-998 918,-962 974,-962 974,-998"/>
<text text-anchor="middle" x="946" y="-977.5" font-family="Times,serif" font-size="10.00" fill="#e2e8f0">Serial.h</text>
</g>
<!-- Serial.h&#45;&gt;EntityManager.h -->
<g id="edge10" class="edge">
<title>Serial.h&#45;&gt;EntityManager.h</title>
<path fill="none" stroke="#718096" d="M957.19,-952.21C968.4,-925.4 985.3,-884.96 994.82,-862.18"/>
<polygon fill="#718096" stroke="#718096" points="953.83,-951.18 953.21,-961.76 960.29,-953.88 953.83,-951.18"/>
</g>
<!-- PassMeshManager.h -->
<g id="node12" class="node">
<title>PassMeshManager.h</title>
<polygon fill="#2d3748" stroke="#4a5568" points="805.5,-862 682.5,-862 682.5,-826 805.5,-826 805.5,-862"/>
<text text-anchor="middle" x="744" y="-841.5" font-family="Times,serif" font-size="10.00" fill="#e2e8f0">PassMeshManager.h</text>
</g>
<!-- PassMeshManager.h&#45;&gt;ComponentTypeInfo.h -->
<g id="edge11" class="edge">
<title>PassMeshManager.h&#45;&gt;ComponentTypeInfo.h</title>
<path fill="none" stroke="#718096" d="M769.62,-818.84C797.75,-792.3 842.21,-750.36 866.93,-727.05"/>
<polygon fill="#718096" stroke="#718096" points="767.02,-816.48 762.14,-825.88 771.82,-821.57 767.02,-816.48"/>
</g>
<!-- DefaultPass.h -->
<g id="node13" class="node">
<title>DefaultPass.h</title>
<polygon fill="#2d3748" stroke="#4a5568" points="626,-727 540,-727 540,-691 626,-691 626,-727"/>
<text text-anchor="middle" x="583" y="-706.5" font-family="Times,serif" font-size="10.00" fill="#e2e8f0">DefaultPass.h</text>
</g>
<!-- PassMeshManager.h&#45;&gt;DefaultPass.h -->
<g id="edge12" class="edge">
<title>PassMeshManager.h&#45;&gt;DefaultPass.h</title>
<path fill="none" stroke="#718096" d="M715.57,-819.51C683.49,-793.01 632.1,-750.56 603.64,-727.05"/>
<polygon fill="#718096" stroke="#718096" points="713.34,-822.21 723.28,-825.88 717.8,-816.82 713.34,-822.21"/>
</g>
<!-- Mesh.h -->
<g id="node14" class="node">
<title>Mesh.h</title>
<polygon fill="#2d3748" stroke="#4a5568" points="521.5,-727 466.5,-727 466.5,-691 521.5,-691 521.5,-727"/>
<text text-anchor="middle" x="494" y="-706.5" font-family="Times,serif" font-size="10.00" fill="#e2e8f0">Mesh.h</text>
</g>
<!-- PassMeshManager.h&#45;&gt;Mesh.h -->
<g id="edge13" class="edge">
<title>PassMeshManager.h&#45;&gt;Mesh.h</title>
<path fill="none" stroke="#718096" d="M702.7,-821.03C651.54,-793.81 565.77,-748.18 521.82,-724.8"/>
<polygon fill="#718096" stroke="#718096" points="701.36,-824.28 711.83,-825.88 704.64,-818.1 701.36,-824.28"/>
</g>
<!-- SubMesh.h -->
<g id="node15" class="node">
<title>SubMesh.h</title>
<polygon fill="#2d3748" stroke="#4a5568" points="839.5,-322 764.5,-322 764.5,-286 839.5,-286 839.5,-322"/>
<text text-anchor="middle" x="802" y="-301.5" font-family="Times,serif" font-size="10.00" fill="#e2e8f0">SubMesh.h</text>
</g>
<!-- PassMeshManager.h&#45;&gt;SubMesh.h -->
<g id="edge14" class="edge">
<title>PassMeshManager.h&#45;&gt;SubMesh.h</title>
<path fill="none" stroke="#718096" d="M751.86,-816.02C758.34,-792.67 767.21,-757.89 772,-727 796.15,-571.31 800.89,-380.25 801.79,-322.4"/>
<polygon fill="#718096" stroke="#718096" points="748.42,-815.31 749.08,-825.88 755.16,-817.21 748.42,-815.31"/>
</g>
<!-- PassDirectory.h -->
<g id="node16" class="node">
<title>PassDirectory.h</title>
<polygon fill="#2d3748" stroke="#4a5568" points="448.5,-727 353.5,-727 353.5,-691 448.5,-691 448.5,-727"/>
<text text-anchor="middle" x="401" y="-706.5" font-family="Times,serif" font-size="10.00" fill="#e2e8f0">PassDirectory.h</text>
</g>
<!-- PassMeshManager.h&#45;&gt;PassDirectory.h -->
<g id="edge15" class="edge">
<title>PassMeshManager.h&#45;&gt;PassDirectory.h</title>
<path fill="none" stroke="#718096" d="M690.23,-822.15C622.57,-795.92 507.65,-751.35 444.97,-727.05"/>
<polygon fill="#718096" stroke="#718096" points="689.27,-825.53 699.86,-825.88 691.8,-819.01 689.27,-825.53"/>
</g>
<!-- Descriptors.h -->
<g id="node34" class="node">
<title>Descriptors.h</title>
<polygon fill="#2d3748" stroke="#4a5568" points="573.5,-592 488.5,-592 488.5,-556 573.5,-556 573.5,-592"/>
<text text-anchor="middle" x="531" y="-571.5" font-family="Times,serif" font-size="10.00" fill="#e2e8f0">Descriptors.h</text>
</g>
<!-- DefaultPass.h&#45;&gt;Descriptors.h -->
<g id="edge40" class="edge">
<title>DefaultPass.h&#45;&gt;Descriptors.h</title>
<path fill="none" stroke="#718096" d="M572.61,-681.41C562.2,-654.8 546.51,-614.66 537.67,-592.05"/>
<polygon fill="#718096" stroke="#718096" points="569.41,-682.85 576.31,-690.88 575.93,-680.3 569.41,-682.85"/>
</g>
<!-- Buffer.h -->
<g id="node35" class="node">
<title>Buffer.h</title>
<polygon fill="#2d3748" stroke="#4a5568" points="559.5,-457 502.5,-457 502.5,-421 559.5,-421 559.5,-457"/>
<text text-anchor="middle" x="531" y="-436.5" font-family="Times,serif" font-size="10.00" fill="#e2e8f0">Buffer.h</text>
</g>
<!-- Mesh.h&#45;&gt;Buffer.h -->
<g id="edge44" class="edge">
<title>Mesh.h&#45;&gt;Buffer.h</title>
<path fill="none" stroke="#718096" d="M486.38,-681.02C478.88,-650.41 469.77,-599.14 479,-556 486.94,-518.88 507.68,-479.28 520.44,-457.28"/>
<polygon fill="#718096" stroke="#718096" points="483.05,-682.13 488.93,-690.94 489.83,-680.38 483.05,-682.13"/>
</g>
<!-- SubMesh.h&#45;&gt;SerialManager.h -->
<g id="edge49" class="edge">
<title>SubMesh.h&#45;&gt;SerialManager.h</title>
<path fill="none" stroke="#718096" d="M802,-275.71C802,-249.1 802,-209.46 802,-187.05"/>
<polygon fill="#718096" stroke="#718096" points="798.5,-275.88 802,-285.88 805.5,-275.88 798.5,-275.88"/>
</g>
<!-- shader_descriptors.h -->
<g id="node29" class="node">
<title>shader_descriptors.h</title>
<polygon fill="#2d3748" stroke="#4a5568" points="328,-592 204,-592 204,-556 328,-556 328,-592"/>
<text text-anchor="middle" x="266" y="-571.5" font-family="Times,serif" font-size="10.00" fill="#e2e8f0">shader_descriptors.h</text>
</g>
<!-- PassDirectory.h&#45;&gt;shader_descriptors.h -->
<g id="edge51" class="edge">
<title>PassDirectory.h&#45;&gt;shader_descriptors.h</title>
<path fill="none" stroke="#718096" d="M376.47,-683.84C349.53,-657.3 306.96,-615.36 283.31,-592.05"/>
<polygon fill="#718096" stroke="#718096" points="374.05,-686.36 383.63,-690.88 378.96,-681.37 374.05,-686.36"/>
</g>
<!-- Core.h -->
<g id="node19" class="node">
<title>Core.h</title>
<polygon fill="#2d3748" stroke="#4a5568" points="545,-1268 491,-1268 491,-1232 545,-1232 545,-1268"/>
<text text-anchor="middle" x="518" y="-1247.5" font-family="Times,serif" font-size="10.00" fill="#e2e8f0">Core.h</text>
</g>
<!-- VulkanEngine.h -->
<g id="node20" class="node">
<title>VulkanEngine.h</title>
<polygon fill="#2d3748" stroke="#4a5568" points="703,-1133 605,-1133 605,-1097 703,-1097 703,-1133"/>
<text text-anchor="middle" x="654" y="-1112.5" font-family="Times,serif" font-size="10.00" fill="#e2e8f0">VulkanEngine.h</text>
</g>
<!-- Core.h&#45;&gt;VulkanEngine.h -->
<g id="edge19" class="edge">
<title>Core.h&#45;&gt;VulkanEngine.h</title>
<path fill="none" stroke="#718096" d="M542.71,-1224.84C569.85,-1198.3 612.73,-1156.36 636.57,-1133.05"/>
<polygon fill="#718096" stroke="#718096" points="540.2,-1222.39 535.5,-1231.88 545.1,-1227.4 540.2,-1222.39"/>
</g>
<!-- ImguiOverlay.h -->
<g id="node21" class="node">
<title>ImguiOverlay.h</title>
<polygon fill="#2d3748" stroke="#4a5568" points="508.5,-1133 413.5,-1133 413.5,-1097 508.5,-1097 508.5,-1133"/>
<text text-anchor="middle" x="461" y="-1112.5" font-family="Times,serif" font-size="10.00" fill="#e2e8f0">ImguiOverlay.h</text>
</g>
<!-- Core.h&#45;&gt;ImguiOverlay.h -->
<g id="edge20" class="edge">
<title>Core.h&#45;&gt;ImguiOverlay.h</title>
<path fill="none" stroke="#718096" d="M506.61,-1222.41C495.2,-1195.8 478,-1155.66 468.31,-1133.05"/>
<polygon fill="#718096" stroke="#718096" points="503.51,-1224.07 510.66,-1231.88 509.94,-1221.31 503.51,-1224.07"/>
</g>
<!-- VulkanEngine.h&#45;&gt;EntityManager.h -->
<g id="edge21" class="edge">
<title>VulkanEngine.h&#45;&gt;EntityManager.h</title>
<path fill="none" stroke="#ffd700" stroke-width="2" d="M713.53,-1111.17C788.94,-1104.13 916.99,-1080.01 983,-998 1014.89,-958.38 1009.91,-893.29 1005.22,-862.36"/>
<polygon fill="#ffd700" stroke="#ffd700" stroke-width="2" points="712.92,-1107.71 703.25,-1112.05 713.52,-1114.68 712.92,-1107.71"/>
</g>
<!-- Material.h -->
<g id="node22" class="node">
<title>Material.h</title>
<polygon fill="#2d3748" stroke="#4a5568" points="867.5,-998 798.5,-998 798.5,-962 867.5,-962 867.5,-998"/>
<text text-anchor="middle" x="833" y="-977.5" font-family="Times,serif" font-size="10.00" fill="#e2e8f0">Material.h</text>
</g>
<!-- VulkanEngine.h&#45;&gt;Material.h -->
<g id="edge22" class="edge">
<title>VulkanEngine.h&#45;&gt;Material.h</title>
<path fill="none" stroke="#718096" d="M685.16,-1090.85C720.79,-1064.37 778.28,-1021.66 810.05,-998.05"/>
<polygon fill="#718096" stroke="#718096" points="682.97,-1088.11 677.03,-1096.88 687.15,-1093.73 682.97,-1088.11"/>
</g>
<!-- CommonTextures.h -->
<g id="node23" class="node">
<title>CommonTextures.h</title>
<polygon fill="#2d3748" stroke="#4a5568" points="708,-592 592,-592 592,-556 708,-556 708,-592"/>
<text text-anchor="middle" x="650" y="-571.5" font-family="Times,serif" font-size="10.00" fill="#e2e8f0">CommonTextures.h</text>
</g>
<!-- VulkanEngine.h&#45;&gt;CommonTextures.h -->
<g id="edge23" class="edge">
<title>VulkanEngine.h&#45;&gt;CommonTextures.h</title>
<path fill="none" stroke="#718096" d="M653.8,-1086.93C653.09,-991.14 650.7,-669.74 650.13,-592.03"/>
<polygon fill="#718096" stroke="#718096" points="650.3,-1087 653.87,-1096.98 657.3,-1086.95 650.3,-1087"/>
</g>
<!-- EngineAliases.h -->
<g id="node24" class="node">
<title>EngineAliases.h</title>
<polygon fill="#2d3748" stroke="#4a5568" points="609.5,-998 510.5,-998 510.5,-962 609.5,-962 609.5,-998"/>
<text text-anchor="middle" x="560" y="-977.5" font-family="Times,serif" font-size="10.00" fill="#e2e8f0">EngineAliases.h</text>
</g>
<!-- VulkanEngine.h&#45;&gt;EngineAliases.h -->
<g id="edge24" class="edge">
<title>VulkanEngine.h&#45;&gt;EngineAliases.h</title>
<path fill="none" stroke="#718096" d="M635.95,-1088.46C617.15,-1061.87 588.24,-1020.96 572.05,-998.05"/>
<polygon fill="#718096" stroke="#718096" points="633.27,-1090.74 641.9,-1096.88 638.99,-1086.7 633.27,-1090.74"/>
</g>
<!-- CommonSetLayouts.h -->
<g id="node25" class="node">
<title>CommonSetLayouts.h</title>
<polygon fill="#2d3748" stroke="#4a5568" points="281.5,-862 152.5,-862 152.5,-826 281.5,-826 281.5,-862"/>
<text text-anchor="middle" x="217" y="-841.5" font-family="Times,serif" font-size="10.00" fill="#e2e8f0">CommonSetLayouts.h</text>
</g>
<!-- VulkanEngine.h&#45;&gt;CommonSetLayouts.h -->
<g id="edge25" class="edge">
<title>VulkanEngine.h&#45;&gt;CommonSetLayouts.h</title>
<path fill="none" stroke="#718096" d="M617.77,-1091.7C532.57,-1039.25 320.95,-908.98 244.83,-862.13"/>
<polygon fill="#718096" stroke="#718096" points="615.98,-1094.71 626.33,-1096.97 619.65,-1088.75 615.98,-1094.71"/>
</g>
<!-- Camera.h -->
<g id="node26" class="node">
<title>Camera.h</title>
<polygon fill="#2d3748" stroke="#4a5568" points="748,-998 682,-998 682,-962 748,-962 748,-998"/>
<text text-anchor="middle" x="715" y="-977.5" font-family="Times,serif" font-size="10.00" fill="#e2e8f0">Camera.h</text>
</g>
<!-- VulkanEngine.h&#45;&gt;Camera.h -->
<g id="edge26" class="edge">
<title>VulkanEngine.h&#45;&gt;Camera.h</title>
<path fill="none" stroke="#718096" d="M666.03,-1087.76C678.24,-1061.16 696.76,-1020.76 707.18,-998.05"/>
<polygon fill="#718096" stroke="#718096" points="662.84,-1086.34 661.85,-1096.88 669.2,-1089.25 662.84,-1086.34"/>
</g>
<!-- EngineResources.h -->
<g id="node40" class="node">
<title>EngineResources.h</title>
<polygon fill="#2d3748" stroke="#4a5568" points="441,-862 325,-862 325,-826 441,-826 441,-862"/>
<text text-anchor="middle" x="383" y="-841.5" font-family="Times,serif" font-size="10.00" fill="#e2e8f0">EngineResources.h</text>
</g>
<!-- ImguiOverlay.h&#45;&gt;EngineResources.h -->
<g id="edge53" class="edge">
<title>ImguiOverlay.h&#45;&gt;EngineResources.h</title>
<path fill="none" stroke="#718096" d="M453.17,-1087C437.17,-1031.83 401.14,-907.57 387.96,-862.09"/>
<polygon fill="#718096" stroke="#718096" points="449.86,-1088.13 456,-1096.76 456.58,-1086.18 449.86,-1088.13"/>
</g>
<!-- Material.h&#45;&gt;EntityManager.h -->
<g id="edge41" class="edge">
<title>Material.h&#45;&gt;EntityManager.h</title>
<path fill="none" stroke="#718096" d="M862.84,-955.34C896.52,-928.64 950.47,-885.86 980.34,-862.18"/>
<polygon fill="#718096" stroke="#718096" points="860.41,-952.8 854.75,-961.76 864.76,-958.29 860.41,-952.8"/>
</g>
<!-- Material.h&#45;&gt;PassMeshManager.h -->
<g id="edge42" class="edge">
<title>Material.h&#45;&gt;PassMeshManager.h</title>
<path fill="none" stroke="#718096" d="M815.91,-953.27C798.11,-926.48 770.74,-885.26 755.41,-862.18"/>
<polygon fill="#718096" stroke="#718096" points="813.1,-955.36 821.55,-961.76 818.93,-951.49 813.1,-955.36"/>
</g>
<!-- PassComponent.h -->
<g id="node39" class="node">
<title>PassComponent.h</title>
<polygon fill="#2d3748" stroke="#4a5568" points="932,-862 824,-862 824,-826 932,-826 932,-862"/>
<text text-anchor="middle" x="878" y="-841.5" font-family="Times,serif" font-size="10.00" fill="#e2e8f0">PassComponent.h</text>
</g>
<!-- Material.h&#45;&gt;PassComponent.h -->
<g id="edge43" class="edge">
<title>Material.h&#45;&gt;PassComponent.h</title>
<path fill="none" stroke="#718096" d="M842,-952.21C851,-925.4 864.58,-884.96 872.23,-862.18"/>
<polygon fill="#718096" stroke="#718096" points="838.66,-951.16 838.79,-961.76 845.29,-953.39 838.66,-951.16"/>
</g>
<!-- Image.h -->
<g id="node36" class="node">
<title>Image.h</title>
<polygon fill="#2d3748" stroke="#4a5568" points="636.5,-457 577.5,-457 577.5,-421 636.5,-421 636.5,-457"/>
<text text-anchor="middle" x="607" y="-436.5" font-family="Times,serif" font-size="10.00" fill="#e2e8f0">Image.h</text>
</g>
<!-- CommonTextures.h&#45;&gt;Image.h -->
<g id="edge50" class="edge">
<title>CommonTextures.h&#45;&gt;Image.h</title>
<path fill="none" stroke="#718096" d="M641.29,-546.06C632.69,-519.45 619.79,-479.56 612.51,-457.05"/>
<polygon fill="#718096" stroke="#718096" points="638.06,-547.45 644.47,-555.88 644.72,-545.29 638.06,-547.45"/>
</g>
<!-- ComponentTypeDefinitions.h -->
<g id="node27" class="node">
<title>ComponentTypeDefinitions.h</title>
<polygon fill="#2d3748" stroke="#4a5568" points="626.5,-862 459.5,-862 459.5,-826 626.5,-826 626.5,-862"/>
<text text-anchor="middle" x="543" y="-841.5" font-family="Times,serif" font-size="10.00" fill="#e2e8f0">ComponentTypeDefinitions.h</text>
</g>
<!-- EngineAliases.h&#45;&gt;ComponentTypeDefinitions.h -->
<g id="edge52" class="edge">
<title>EngineAliases.h&#45;&gt;ComponentTypeDefinitions.h</title>
<path fill="none" stroke="#718096" d="M556.51,-951.5C553.11,-924.69 548.04,-884.76 545.18,-862.18"/>
<polygon fill="#718096" stroke="#718096" points="553.08,-952.28 557.81,-961.76 560.03,-951.4 553.08,-952.28"/>
</g>
<!-- CommonSetLayouts.h&#45;&gt;shader_descriptors.h -->
<g id="edge57" class="edge">
<title>CommonSetLayouts.h&#45;&gt;shader_descriptors.h</title>
<path fill="none" stroke="#718096" d="M211.42,-815.91C206.09,-785.2 200.2,-733.85 210,-691 218.58,-653.5 240.91,-614.03 254.64,-592.16"/>
<polygon fill="#718096" stroke="#718096" points="208,-816.66 213.26,-825.86 214.89,-815.4 208,-816.66"/>
</g>
<!-- ComponentTypeDefinitions.h&#45;&gt;PassDirectory.h -->
<g id="edge28" class="edge">
<title>ComponentTypeDefinitions.h&#45;&gt;PassDirectory.h</title>
<path fill="none" stroke="#718096" d="M517.2,-818.84C488.87,-792.3 444.09,-750.36 419.2,-727.05"/>
<polygon fill="#718096" stroke="#718096" points="515.04,-821.6 524.73,-825.88 519.82,-816.49 515.04,-821.6"/>
</g>
<!-- array.h -->
<g id="node28" class="node">
<title>array.h</title>
<polygon fill="#2d3748" stroke="#4a5568" points="763,-727 709,-727 709,-691 763,-691 763,-727"/>
<text text-anchor="middle" x="736" y="-706.5" font-family="Times,serif" font-size="10.00" fill="#e2e8f0">array.h</text>
</g>
<!-- ComponentTypeDefinitions.h&#45;&gt;array.h -->
<g id="edge27" class="edge">
<title>ComponentTypeDefinitions.h&#45;&gt;array.h</title>
<path fill="none" stroke="#718096" d="M576.11,-820.18C614.49,-793.74 676.86,-750.76 711.26,-727.05"/>
<polygon fill="#718096" stroke="#718096" points="574.08,-817.33 567.84,-825.88 578.06,-823.09 574.08,-817.33"/>
</g>
<!-- array.h&#45;&gt;SerialManager.h -->
<g id="edge29" class="edge">
<title>array.h&#45;&gt;SerialManager.h</title>
<path fill="none" stroke="#718096" d="M734.06,-680.59C729.95,-612.75 723.14,-431.92 755,-286 763.02,-249.27 781.66,-209.21 792.91,-187.09"/>
<polygon fill="#718096" stroke="#718096" points="730.59,-681.09 734.72,-690.85 737.57,-680.65 730.59,-681.09"/>
</g>
<!-- VulkanTypes.h -->
<g id="node30" class="node">
<title>VulkanTypes.h</title>
<polygon fill="#2d3748" stroke="#4a5568" points="549,-322 457,-322 457,-286 549,-286 549,-322"/>
<text text-anchor="middle" x="503" y="-301.5" font-family="Times,serif" font-size="10.00" fill="#e2e8f0">VulkanTypes.h</text>
</g>
<!-- shader_descriptors.h&#45;&gt;VulkanTypes.h -->
<g id="edge30" class="edge">
<title>shader_descriptors.h&#45;&gt;VulkanTypes.h</title>
<path fill="none" stroke="#718096" d="M320.4,-551.91C362.48,-532.98 419.24,-501.33 454,-457 486.33,-415.76 497.63,-352.56 501.33,-322.31"/>
<polygon fill="#718096" stroke="#718096" points="318.87,-548.76 311.12,-555.98 321.68,-555.17 318.87,-548.76"/>
</g>
<!-- VulkanNew.h -->
<g id="node31" class="node">
<title>VulkanNew.h</title>
<polygon fill="#2d3748" stroke="#4a5568" points="202,-457 118,-457 118,-421 202,-421 202,-457"/>
<text text-anchor="middle" x="160" y="-436.5" font-family="Times,serif" font-size="10.00" fill="#e2e8f0">VulkanNew.h</text>
</g>
<!-- shader_descriptors.h&#45;&gt;VulkanNew.h -->
<g id="edge31" class="edge">
<title>shader_descriptors.h&#45;&gt;VulkanNew.h</title>
<path fill="none" stroke="#718096" d="M245.92,-547.81C224.74,-521.22 191.93,-480.06 173.59,-457.05"/>
<polygon fill="#718096" stroke="#718096" points="243.39,-550.25 252.36,-555.88 248.86,-545.88 243.39,-550.25"/>
</g>
<!-- AssetLookup.h -->
<g id="node32" class="node">
<title>AssetLookup.h</title>
<polygon fill="#2d3748" stroke="#4a5568" points="312,-457 220,-457 220,-421 312,-421 312,-457"/>
<text text-anchor="middle" x="266" y="-436.5" font-family="Times,serif" font-size="10.00" fill="#e2e8f0">AssetLookup.h</text>
</g>
<!-- shader_descriptors.h&#45;&gt;AssetLookup.h -->
<g id="edge32" class="edge">
<title>shader_descriptors.h&#45;&gt;AssetLookup.h</title>
<path fill="none" stroke="#718096" d="M266,-545.71C266,-519.1 266,-479.46 266,-457.05"/>
<polygon fill="#718096" stroke="#718096" points="262.5,-545.88 266,-555.88 269.5,-545.88 262.5,-545.88"/>
</g>
<!-- AssetLookup.h&#45;&gt;AssetID.h -->
<g id="edge48" class="edge">
<title>AssetLookup.h&#45;&gt;AssetID.h</title>
<path fill="none" stroke="#718096" d="M278.03,-411.76C290.24,-385.16 308.76,-344.76 319.18,-322.05"/>
<polygon fill="#718096" stroke="#718096" points="274.84,-410.34 273.85,-420.88 281.2,-413.25 274.84,-410.34"/>
</g>
<!-- ResourceHandles.h -->
<g id="node33" class="node">
<title>ResourceHandles.h</title>
<polygon fill="#2d3748" stroke="#4a5568" points="335,-727 219,-727 219,-691 335,-691 335,-727"/>
<text text-anchor="middle" x="277" y="-706.5" font-family="Times,serif" font-size="10.00" fill="#e2e8f0">ResourceHandles.h</text>
</g>
<!-- ResourceHandles.h&#45;&gt;Descriptors.h -->
<g id="edge33" class="edge">
<title>ResourceHandles.h&#45;&gt;Descriptors.h</title>
<path fill="none" stroke="#718096" d="M318.68,-686.18C369.01,-659.82 452.59,-616.05 498.44,-592.05"/>
<polygon fill="#718096" stroke="#718096" points="316.92,-683.15 309.69,-690.88 320.17,-689.35 316.92,-683.15"/>
</g>
<!-- Descriptors.h&#45;&gt;Buffer.h -->
<g id="edge34" class="edge">
<title>Descriptors.h&#45;&gt;Buffer.h</title>
<path fill="none" stroke="#718096" d="M531,-545.71C531,-519.1 531,-479.46 531,-457.05"/>
<polygon fill="#718096" stroke="#718096" points="527.5,-545.88 531,-555.88 534.5,-545.88 527.5,-545.88"/>
</g>
<!-- Descriptors.h&#45;&gt;Image.h -->
<g id="edge35" class="edge">
<title>Descriptors.h&#45;&gt;Image.h</title>
<path fill="none" stroke="#718096" d="M545.79,-547.11C560.99,-520.51 584.22,-479.86 597.26,-457.05"/>
<polygon fill="#718096" stroke="#718096" points="542.7,-545.47 540.78,-555.88 548.78,-548.94 542.7,-545.47"/>
</g>
<!-- Buffer.h&#45;&gt;VulkanTypes.h -->
<g id="edge45" class="edge">
<title>Buffer.h&#45;&gt;VulkanTypes.h</title>
<path fill="none" stroke="#718096" d="M525.33,-411.06C519.73,-384.45 511.33,-344.56 506.59,-322.05"/>
<polygon fill="#718096" stroke="#718096" points="521.91,-411.82 527.4,-420.88 528.76,-410.38 521.91,-411.82"/>
</g>
<!-- Image.h&#45;&gt;VulkanTypes.h -->
<g id="edge58" class="edge">
<title>Image.h&#45;&gt;VulkanTypes.h</title>
<path fill="none" stroke="#718096" d="M587.3,-412.81C566.51,-386.22 534.32,-345.06 516.33,-322.05"/>
<polygon fill="#718096" stroke="#718096" points="584.7,-415.16 593.62,-420.88 590.21,-410.85 584.7,-415.16"/>
</g>
<!-- RawArray.h&#45;&gt;ComponentConcepts.h -->
<g id="edge37" class="edge">
<title>RawArray.h&#45;&gt;ComponentConcepts.h</title>
<path fill="none" stroke="#718096" d="M1067.54,-547.81C1045.96,-521.22 1012.53,-480.06 993.84,-457.05"/>
<polygon fill="#718096" stroke="#718096" points="1065.08,-550.33 1074.1,-555.88 1070.52,-545.92 1065.08,-550.33"/>
</g>
<!-- ShaderAssetData.h -->
<g id="node38" class="node">
<title>ShaderAssetData.h</title>
<polygon fill="#2d3748" stroke="#4a5568" points="445.5,-457 330.5,-457 330.5,-421 445.5,-421 445.5,-457"/>
<text text-anchor="middle" x="388" y="-436.5" font-family="Times,serif" font-size="10.00" fill="#e2e8f0">ShaderAssetData.h</text>
</g>
<!-- ShaderAssetData.h&#45;&gt;AssetID.h -->
<g id="edge38" class="edge">
<title>ShaderAssetData.h&#45;&gt;AssetID.h</title>
<path fill="none" stroke="#718096" d="M375.97,-411.76C363.76,-385.16 345.24,-344.76 334.82,-322.05"/>
<polygon fill="#718096" stroke="#718096" points="372.8,-413.25 380.15,-420.88 379.16,-410.34 372.8,-413.25"/>
</g>
<!-- ShaderAssetData.h&#45;&gt;VulkanTypes.h -->
<g id="edge39" class="edge">
<title>ShaderAssetData.h&#45;&gt;VulkanTypes.h</title>
<path fill="none" stroke="#718096" d="M409.48,-413.15C432.46,-386.58 468.28,-345.16 488.26,-322.05"/>
<polygon fill="#718096" stroke="#718096" points="406.69,-411.03 402.8,-420.88 411.99,-415.61 406.69,-411.03"/>
</g>
<!-- PassComponent.h&#45;&gt;ComponentTypeInfo.h -->
<g id="edge46" class="edge">
<title>PassComponent.h&#45;&gt;ComponentTypeInfo.h</title>
<path fill="none" stroke="#718096" d="M879.44,-815.71C880.84,-789.1 882.92,-749.46 884.1,-727.05"/>
<polygon fill="#718096" stroke="#718096" points="875.93,-815.71 878.9,-825.88 882.92,-816.08 875.93,-815.71"/>
</g>
<!-- PassComponent.h&#45;&gt;array.h -->
<g id="edge47" class="edge">
<title>PassComponent.h&#45;&gt;array.h</title>
<path fill="none" stroke="#718096" d="M852.2,-818.84C823.87,-792.3 779.09,-750.36 754.2,-727.05"/>
<polygon fill="#718096" stroke="#718096" points="850.04,-821.6 859.73,-825.88 854.82,-816.49 850.04,-821.6"/>
</g>
<!-- EngineResources.h&#45;&gt;Mesh.h -->
<g id="edge56" class="edge">
<title>EngineResources.h&#45;&gt;Mesh.h</title>
<path fill="none" stroke="#718096" d="M403.74,-818.15C425.91,-791.58 460.48,-750.16 479.77,-727.05"/>
<polygon fill="#718096" stroke="#718096" points="401,-815.96 397.28,-825.88 406.38,-820.45 401,-815.96"/>
</g>
<!-- EngineResources.h&#45;&gt;ResourceHandles.h -->
<g id="edge55" class="edge">
<title>EngineResources.h&#45;&gt;ResourceHandles.h</title>
<path fill="none" stroke="#718096" d="M362.92,-817.81C341.74,-791.22 308.93,-750.06 290.59,-727.05"/>
<polygon fill="#718096" stroke="#718096" points="360.39,-820.25 369.36,-825.88 365.86,-815.88 360.39,-820.25"/>
</g>
<!-- OLD_loader.h -->
<g id="node41" class="node">
<title>OLD_loader.h</title>
<polygon fill="#2d3748" stroke="#4a5568" points="561,-1403 475,-1403 475,-1367 561,-1367 561,-1403"/>
<text text-anchor="middle" x="518" y="-1382.5" font-family="Times,serif" font-size="10.00" fill="#e2e8f0">OLD_loader.h</text>
</g>
<!-- OLD_loader.h&#45;&gt;Core.h -->
<g id="edge54" class="edge">
<title>OLD_loader.h&#45;&gt;Core.h</title>
<path fill="none" stroke="#718096" d="M518,-1356.71C518,-1330.1 518,-1290.46 518,-1268.05"/>
<polygon fill="#718096" stroke="#718096" points="514.5,-1356.88 518,-1366.88 521.5,-1356.88 514.5,-1356.88"/>
</g>
<!-- Pipelines.h -->
<g id="node42" class="node">
<title>Pipelines.h</title>
<polygon fill="#2d3748" stroke="#4a5568" points="424.5,-592 351.5,-592 351.5,-556 424.5,-556 424.5,-592"/>
<text text-anchor="middle" x="388" y="-571.5" font-family="Times,serif" font-size="10.00" fill="#e2e8f0">Pipelines.h</text>
</g>
<!-- Pipelines.h&#45;&gt;ShaderAssetData.h -->
<g id="edge59" class="edge">
<title>Pipelines.h&#45;&gt;ShaderAssetData.h</title>
<path fill="none" stroke="#718096" d="M388,-545.71C388,-519.1 388,-479.46 388,-457.05"/>
<polygon fill="#718096" stroke="#718096" points="384.5,-545.88 388,-555.88 391.5,-545.88 384.5,-545.88"/>
</g>
</g>
</svg>
