<?xml version="1.0" encoding="UTF-8" standalone="no"?>
<!DOCTYPE svg PUBLIC "-//W3C//DTD SVG 1.1//EN"
 "http://www.w3.org/Graphics/SVG/1.1/DTD/svg11.dtd">
<!-- Generated by graphviz version 2.43.0 (0)
 -->
<!-- Title: source tree Pages: 1 -->
<svg width="576pt" height="719pt"
 viewBox="0.00 0.00 576.00 719.41" xmlns="http://www.w3.org/2000/svg" xmlns:xlink="http://www.w3.org/1999/xlink">
<g id="graph0" class="graph" transform="scale(0.29 0.29) rotate(0) translate(4 2444)">
<title>source tree</title>
<polygon fill="#1e1e1e" stroke="transparent" points="-4,4 -4,-2444 1956,-2444 1956,4 -4,4"/>
<!-- VulkanEngine.h -->
<g id="node1" class="node">
<title>VulkanEngine.h</title>
<polygon fill="#2d3748" stroke="#4a5568" points="551,-2168 453,-2168 453,-2132 551,-2132 551,-2168"/>
<text text-anchor="middle" x="502" y="-2147.5" font-family="Times,serif" font-size="10.00" fill="#e2e8f0">VulkanEngine.h</text>
</g>
<!-- CommonTextures.h -->
<g id="node2" class="node">
<title>CommonTextures.h</title>
<polygon fill="#2d3748" stroke="#4a5568" points="202,-1006 86,-1006 86,-970 202,-970 202,-1006"/>
<text text-anchor="middle" x="144" y="-985.5" font-family="Times,serif" font-size="10.00" fill="#e2e8f0">CommonTextures.h</text>
</g>
<!-- VulkanEngine.h&#45;&gt;CommonTextures.h -->
<g id="edge1" class="edge">
<title>VulkanEngine.h&#45;&gt;CommonTextures.h</title>
<path fill="none" stroke="#718096" d="M465.58,-2126.35C374.49,-2066.58 144,-1894.71 144,-1686 144,-1686 144,-1686 144,-1451 144,-1277.35 144,-1066.98 144,-1006.2"/>
<polygon fill="#718096" stroke="#718096" points="463.91,-2129.44 474.21,-2131.95 467.72,-2123.57 463.91,-2129.44"/>
</g>
<!-- CommonSetLayouts.h -->
<g id="node3" class="node">
<title>CommonSetLayouts.h</title>
<polygon fill="#2d3748" stroke="#4a5568" points="624.5,-1935 495.5,-1935 495.5,-1899 624.5,-1899 624.5,-1935"/>
<text text-anchor="middle" x="560" y="-1914.5" font-family="Times,serif" font-size="10.00" fill="#e2e8f0">CommonSetLayouts.h</text>
</g>
<!-- VulkanEngine.h&#45;&gt;CommonSetLayouts.h -->
<g id="edge2" class="edge">
<title>VulkanEngine.h&#45;&gt;CommonSetLayouts.h</title>
<path fill="none" stroke="#718096" d="M508.8,-2121.93C520.85,-2073.91 545.66,-1975.12 555.67,-1935.25"/>
<polygon fill="#718096" stroke="#718096" points="505.4,-2121.09 506.36,-2131.64 512.19,-2122.79 505.4,-2121.09"/>
</g>
<!-- Camera.h -->
<g id="node4" class="node">
<title>Camera.h</title>
<polygon fill="#2d3748" stroke="#4a5568" points="477,-1935 411,-1935 411,-1899 477,-1899 477,-1935"/>
<text text-anchor="middle" x="444" y="-1914.5" font-family="Times,serif" font-size="10.00" fill="#e2e8f0">Camera.h</text>
</g>
<!-- VulkanEngine.h&#45;&gt;Camera.h -->
<g id="edge3" class="edge">
<title>VulkanEngine.h&#45;&gt;Camera.h</title>
<path fill="none" stroke="#718096" d="M495.2,-2121.93C483.15,-2073.91 458.34,-1975.12 448.33,-1935.25"/>
<polygon fill="#718096" stroke="#718096" points="491.81,-2122.79 497.64,-2131.64 498.6,-2121.09 491.81,-2122.79"/>
</g>
<!-- Material.h -->
<g id="node5" class="node">
<title>Material.h</title>
<polygon fill="#2d3748" stroke="#4a5568" points="919.5,-1935 850.5,-1935 850.5,-1899 919.5,-1899 919.5,-1935"/>
<text text-anchor="middle" x="885" y="-1914.5" font-family="Times,serif" font-size="10.00" fill="#e2e8f0">Material.h</text>
</g>
<!-- VulkanEngine.h&#45;&gt;Material.h -->
<g id="edge4" class="edge">
<title>VulkanEngine.h&#45;&gt;Material.h</title>
<path fill="none" stroke="#f56565" stroke-width="2" d="M539.3,-2126.5C615.69,-2080.43 788.45,-1976.23 856.6,-1935.13"/>
<polygon fill="#f56565" stroke="#f56565" stroke-width="2" points="537.23,-2123.66 530.47,-2131.83 540.85,-2129.66 537.23,-2123.66"/>
</g>
<!-- Image.h -->
<g id="node6" class="node">
<title>Image.h</title>
<polygon fill="#2d3748" stroke="#4a5568" points="173.5,-773 114.5,-773 114.5,-737 173.5,-737 173.5,-773"/>
<text text-anchor="middle" x="144" y="-752.5" font-family="Times,serif" font-size="10.00" fill="#e2e8f0">Image.h</text>
</g>
<!-- CommonTextures.h&#45;&gt;Image.h -->
<g id="edge5" class="edge">
<title>CommonTextures.h&#45;&gt;Image.h</title>
<path fill="none" stroke="#718096" d="M144,-959.63C144,-911.49 144,-813.03 144,-773.25"/>
<polygon fill="#718096" stroke="#718096" points="140.5,-959.64 144,-969.64 147.5,-959.64 140.5,-959.64"/>
</g>
<!-- shader_descriptors.h -->
<g id="node31" class="node">
<title>shader_descriptors.h</title>
<polygon fill="#2d3748" stroke="#4a5568" points="684,-1238 560,-1238 560,-1202 684,-1202 684,-1238"/>
<text text-anchor="middle" x="622" y="-1217.5" font-family="Times,serif" font-size="10.00" fill="#e2e8f0">shader_descriptors.h</text>
</g>
<!-- CommonSetLayouts.h&#45;&gt;shader_descriptors.h -->
<g id="edge62" class="edge">
<title>CommonSetLayouts.h&#45;&gt;shader_descriptors.h</title>
<path fill="none" stroke="#718096" d="M559.67,-1888.58C559.11,-1814.81 559.59,-1606.06 580,-1434 588.72,-1360.45 608.8,-1274.32 617.66,-1238.25"/>
<polygon fill="#718096" stroke="#718096" points="556.17,-1888.88 559.76,-1898.85 563.17,-1888.82 556.17,-1888.88"/>
</g>
<!-- PassComponent.h -->
<g id="node25" class="node">
<title>PassComponent.h</title>
<polygon fill="#2d3748" stroke="#4a5568" points="1056,-1238 948,-1238 948,-1202 1056,-1202 1056,-1238"/>
<text text-anchor="middle" x="1002" y="-1217.5" font-family="Times,serif" font-size="10.00" fill="#e2e8f0">PassComponent.h</text>
</g>
<!-- Material.h&#45;&gt;PassComponent.h -->
<g id="edge84" class="edge">
<title>Material.h&#45;&gt;PassComponent.h</title>
<path fill="none" stroke="#ffd700" stroke-width="2" d="M895.91,-1889.46C911.79,-1849.67 941.01,-1771.85 956,-1703 994.89,-1524.35 1000.9,-1301.34 1001.83,-1238.3"/>
<polygon fill="#ffd700" stroke="#ffd700" stroke-width="2" points="892.57,-1888.38 892.08,-1898.96 899.07,-1890.99 892.57,-1888.38"/>
</g>
<!-- PassMeshManager.h -->
<g id="node32" class="node">
<title>PassMeshManager.h</title>
<polygon fill="#2d3748" stroke="#4a5568" points="946.5,-1703 823.5,-1703 823.5,-1667 946.5,-1667 946.5,-1703"/>
<text text-anchor="middle" x="885" y="-1682.5" font-family="Times,serif" font-size="10.00" fill="#e2e8f0">PassMeshManager.h</text>
</g>
<!-- Material.h&#45;&gt;PassMeshManager.h -->
<g id="edge83" class="edge">
<title>Material.h&#45;&gt;PassMeshManager.h</title>
<path fill="none" stroke="#f56565" stroke-width="2" d="M885,-1888.44C885,-1840.41 885,-1742.7 885,-1703.17"/>
<polygon fill="#f56565" stroke="#f56565" stroke-width="2" points="881.5,-1888.71 885,-1898.71 888.5,-1888.71 881.5,-1888.71"/>
</g>
<!-- EntityRef.h -->
<g id="node7" class="node">
<title>EntityRef.h</title>
<polygon fill="#2d3748" stroke="#4a5568" points="936,-541 862,-541 862,-505 936,-505 936,-541"/>
<text text-anchor="middle" x="899" y="-520.5" font-family="Times,serif" font-size="10.00" fill="#e2e8f0">EntityRef.h</text>
</g>
<!-- Stream.h -->
<g id="node8" class="node">
<title>Stream.h</title>
<polygon fill="#2d3748" stroke="#4a5568" points="865.5,-308 802.5,-308 802.5,-272 865.5,-272 865.5,-308"/>
<text text-anchor="middle" x="834" y="-287.5" font-family="Times,serif" font-size="10.00" fill="#e2e8f0">Stream.h</text>
</g>
<!-- EntityRef.h&#45;&gt;Stream.h -->
<g id="edge6" class="edge">
<title>EntityRef.h&#45;&gt;Stream.h</title>
<path fill="none" stroke="#718096" d="M891.38,-494.93C877.87,-446.91 850.07,-348.12 838.85,-308.25"/>
<polygon fill="#718096" stroke="#718096" points="888.04,-495.96 894.11,-504.64 894.77,-494.06 888.04,-495.96"/>
</g>
<!-- ComponentConcepts.h -->
<g id="node9" class="node">
<title>ComponentConcepts.h</title>
<polygon fill="#2d3748" stroke="#4a5568" points="1063.5,-308 930.5,-308 930.5,-272 1063.5,-272 1063.5,-308"/>
<text text-anchor="middle" x="997" y="-287.5" font-family="Times,serif" font-size="10.00" fill="#e2e8f0">ComponentConcepts.h</text>
</g>
<!-- EntityRef.h&#45;&gt;ComponentConcepts.h -->
<g id="edge7" class="edge">
<title>EntityRef.h&#45;&gt;ComponentConcepts.h</title>
<path fill="none" stroke="#718096" d="M910.36,-495.23C930.68,-447.32 972.73,-348.2 989.68,-308.25"/>
<polygon fill="#718096" stroke="#718096" points="907.05,-494.06 906.37,-504.64 913.49,-496.8 907.05,-494.06"/>
</g>
<!-- SerialConcepts.h -->
<g id="node10" class="node">
<title>SerialConcepts.h</title>
<polygon fill="#2d3748" stroke="#4a5568" points="1038.5,-76 935.5,-76 935.5,-40 1038.5,-40 1038.5,-76"/>
<text text-anchor="middle" x="987" y="-55.5" font-family="Times,serif" font-size="10.00" fill="#e2e8f0">SerialConcepts.h</text>
</g>
<!-- Stream.h&#45;&gt;SerialConcepts.h -->
<g id="edge8" class="edge">
<title>Stream.h&#45;&gt;SerialConcepts.h</title>
<path fill="none" stroke="#718096" d="M851.14,-263.24C882.64,-215.89 948.95,-116.2 975.58,-76.17"/>
<polygon fill="#718096" stroke="#718096" points="848.12,-261.45 845.5,-271.71 853.95,-265.33 848.12,-261.45"/>
</g>
<!-- WriteByteStream.h -->
<g id="node11" class="node">
<title>WriteByteStream.h</title>
<polygon fill="#2d3748" stroke="#4a5568" points="765.5,-76 652.5,-76 652.5,-40 765.5,-40 765.5,-76"/>
<text text-anchor="middle" x="709" y="-55.5" font-family="Times,serif" font-size="10.00" fill="#e2e8f0">WriteByteStream.h</text>
</g>
<!-- Stream.h&#45;&gt;WriteByteStream.h -->
<g id="edge9" class="edge">
<title>Stream.h&#45;&gt;WriteByteStream.h</title>
<path fill="none" stroke="#718096" d="M819.68,-262.65C793.81,-215.06 740,-116.04 718.33,-76.17"/>
<polygon fill="#718096" stroke="#718096" points="816.75,-264.6 824.6,-271.71 822.9,-261.26 816.75,-264.6"/>
</g>
<!-- ReadByteStream.h -->
<g id="node12" class="node">
<title>ReadByteStream.h</title>
<polygon fill="#2d3748" stroke="#4a5568" points="896.5,-76 783.5,-76 783.5,-40 896.5,-40 896.5,-76"/>
<text text-anchor="middle" x="840" y="-55.5" font-family="Times,serif" font-size="10.00" fill="#e2e8f0">ReadByteStream.h</text>
</g>
<!-- Stream.h&#45;&gt;ReadByteStream.h -->
<g id="edge10" class="edge">
<title>Stream.h&#45;&gt;ReadByteStream.h</title>
<path fill="none" stroke="#718096" d="M834.72,-261.44C835.97,-213.41 838.52,-115.7 839.55,-76.17"/>
<polygon fill="#718096" stroke="#718096" points="831.21,-261.62 834.45,-271.71 838.21,-261.81 831.21,-261.62"/>
</g>
<!-- ComponentConcepts.h&#45;&gt;SerialConcepts.h -->
<g id="edge50" class="edge">
<title>ComponentConcepts.h&#45;&gt;SerialConcepts.h</title>
<path fill="none" stroke="#718096" d="M995.8,-261.44C993.71,-213.41 989.47,-115.7 987.75,-76.17"/>
<polygon fill="#718096" stroke="#718096" points="992.32,-261.87 996.25,-271.71 999.31,-261.57 992.32,-261.87"/>
</g>
<!-- Descriptors.h -->
<g id="node13" class="node">
<title>Descriptors.h</title>
<polygon fill="#2d3748" stroke="#4a5568" points="362.5,-1006 277.5,-1006 277.5,-970 362.5,-970 362.5,-1006"/>
<text text-anchor="middle" x="320" y="-985.5" font-family="Times,serif" font-size="10.00" fill="#e2e8f0">Descriptors.h</text>
</g>
<!-- Descriptors.h&#45;&gt;Image.h -->
<g id="edge12" class="edge">
<title>Descriptors.h&#45;&gt;Image.h</title>
<path fill="none" stroke="#718096" d="M300.51,-961.42C264.37,-913.99 187.84,-813.54 157.14,-773.25"/>
<polygon fill="#718096" stroke="#718096" points="297.93,-963.8 306.77,-969.64 303.49,-959.56 297.93,-963.8"/>
</g>
<!-- Buffer.h -->
<g id="node14" class="node">
<title>Buffer.h</title>
<polygon fill="#2d3748" stroke="#4a5568" points="503.5,-773 446.5,-773 446.5,-737 503.5,-737 503.5,-773"/>
<text text-anchor="middle" x="475" y="-752.5" font-family="Times,serif" font-size="10.00" fill="#e2e8f0">Buffer.h</text>
</g>
<!-- Descriptors.h&#45;&gt;Buffer.h -->
<g id="edge11" class="edge">
<title>Descriptors.h&#45;&gt;Buffer.h</title>
<path fill="none" stroke="#718096" d="M337.36,-961.13C369.27,-913.57 436.45,-813.45 463.43,-773.25"/>
<polygon fill="#718096" stroke="#718096" points="334.32,-959.38 331.65,-969.64 340.13,-963.28 334.32,-959.38"/>
</g>
<!-- VulkanCheck.h -->
<g id="node15" class="node">
<title>VulkanCheck.h</title>
<polygon fill="#2d3748" stroke="#4a5568" points="419.5,-541 326.5,-541 326.5,-505 419.5,-505 419.5,-541"/>
<text text-anchor="middle" x="373" y="-520.5" font-family="Times,serif" font-size="10.00" fill="#e2e8f0">VulkanCheck.h</text>
</g>
<!-- Buffer.h&#45;&gt;VulkanCheck.h -->
<g id="edge13" class="edge">
<title>Buffer.h&#45;&gt;VulkanCheck.h</title>
<path fill="none" stroke="#718096" d="M463.18,-727.35C442.03,-679.65 398.26,-580.95 380.62,-541.17"/>
<polygon fill="#718096" stroke="#718096" points="460.08,-728.99 467.33,-736.71 466.48,-726.15 460.08,-728.99"/>
</g>
<!-- VulkanNew.h -->
<g id="node16" class="node">
<title>VulkanNew.h</title>
<polygon fill="#2d3748" stroke="#4a5568" points="522,-541 438,-541 438,-505 522,-505 522,-541"/>
<text text-anchor="middle" x="480" y="-520.5" font-family="Times,serif" font-size="10.00" fill="#e2e8f0">VulkanNew.h</text>
</g>
<!-- Buffer.h&#45;&gt;VulkanNew.h -->
<g id="edge14" class="edge">
<title>Buffer.h&#45;&gt;VulkanNew.h</title>
<path fill="none" stroke="#718096" d="M475.6,-726.44C476.64,-678.41 478.77,-580.7 479.63,-541.17"/>
<polygon fill="#718096" stroke="#718096" points="472.09,-726.64 475.38,-736.71 479.09,-726.79 472.09,-726.64"/>
</g>
<!-- Archetype.h -->
<g id="node17" class="node">
<title>Archetype.h</title>
<polygon fill="#2d3748" stroke="#4a5568" points="1178.5,-773 1099.5,-773 1099.5,-737 1178.5,-737 1178.5,-773"/>
<text text-anchor="middle" x="1139" y="-752.5" font-family="Times,serif" font-size="10.00" fill="#e2e8f0">Archetype.h</text>
</g>
<!-- TypeRegistry.h -->
<g id="node18" class="node">
<title>TypeRegistry.h</title>
<polygon fill="#2d3748" stroke="#4a5568" points="1216.5,-541 1123.5,-541 1123.5,-505 1216.5,-505 1216.5,-541"/>
<text text-anchor="middle" x="1170" y="-520.5" font-family="Times,serif" font-size="10.00" fill="#e2e8f0">TypeRegistry.h</text>
</g>
<!-- Archetype.h&#45;&gt;TypeRegistry.h -->
<g id="edge15" class="edge">
<title>Archetype.h&#45;&gt;TypeRegistry.h</title>
<path fill="none" stroke="#718096" d="M1142.67,-726.75C1149.13,-678.82 1162.35,-580.79 1167.69,-541.17"/>
<polygon fill="#718096" stroke="#718096" points="1139.2,-726.33 1141.33,-736.71 1146.13,-727.27 1139.2,-726.33"/>
</g>
<!-- RawArray.h -->
<g id="node19" class="node">
<title>RawArray.h</title>
<polygon fill="#2d3748" stroke="#4a5568" points="1105.5,-541 1030.5,-541 1030.5,-505 1105.5,-505 1105.5,-541"/>
<text text-anchor="middle" x="1068" y="-520.5" font-family="Times,serif" font-size="10.00" fill="#e2e8f0">RawArray.h</text>
</g>
<!-- Archetype.h&#45;&gt;RawArray.h -->
<g id="edge16" class="edge">
<title>Archetype.h&#45;&gt;RawArray.h</title>
<path fill="none" stroke="#718096" d="M1130.68,-727.05C1115.92,-679.23 1085.56,-580.87 1073.3,-541.17"/>
<polygon fill="#718096" stroke="#718096" points="1127.37,-728.19 1133.66,-736.71 1134.06,-726.13 1127.37,-728.19"/>
</g>
<!-- TypeRegistry.h&#45;&gt;Stream.h -->
<g id="edge17" class="edge">
<title>TypeRegistry.h&#45;&gt;Stream.h</title>
<path fill="none" stroke="#718096" d="M1136.47,-498.95C1069.14,-452.66 918.84,-349.33 859.14,-308.29"/>
<polygon fill="#718096" stroke="#718096" points="1134.8,-502.04 1145.02,-504.83 1138.76,-496.28 1134.8,-502.04"/>
</g>
<!-- TypenameRegistry.h -->
<g id="node20" class="node">
<title>TypenameRegistry.h</title>
<polygon fill="#2d3748" stroke="#4a5568" points="1231,-308 1109,-308 1109,-272 1231,-272 1231,-308"/>
<text text-anchor="middle" x="1170" y="-287.5" font-family="Times,serif" font-size="10.00" fill="#e2e8f0">TypenameRegistry.h</text>
</g>
<!-- TypeRegistry.h&#45;&gt;TypenameRegistry.h -->
<g id="edge18" class="edge">
<title>TypeRegistry.h&#45;&gt;TypenameRegistry.h</title>
<path fill="none" stroke="#718096" d="M1170,-494.63C1170,-446.49 1170,-348.03 1170,-308.25"/>
<polygon fill="#718096" stroke="#718096" points="1166.5,-494.64 1170,-504.64 1173.5,-494.64 1166.5,-494.64"/>
</g>
<!-- RawArray.h&#45;&gt;ComponentConcepts.h -->
<g id="edge72" class="edge">
<title>RawArray.h&#45;&gt;ComponentConcepts.h</title>
<path fill="none" stroke="#718096" d="M1059.68,-494.93C1044.92,-446.91 1014.56,-348.12 1002.3,-308.25"/>
<polygon fill="#718096" stroke="#718096" points="1056.38,-496.11 1062.66,-504.64 1063.07,-494.05 1056.38,-496.11"/>
</g>
<!-- StencilOutlinePass.h -->
<g id="node21" class="node">
<title>StencilOutlinePass.h</title>
<polygon fill="#2d3748" stroke="#4a5568" points="541.5,-1238 420.5,-1238 420.5,-1202 541.5,-1202 541.5,-1238"/>
<text text-anchor="middle" x="481" y="-1217.5" font-family="Times,serif" font-size="10.00" fill="#e2e8f0">StencilOutlinePass.h</text>
</g>
<!-- StencilOutlinePass.h&#45;&gt;Descriptors.h -->
<g id="edge19" class="edge">
<title>StencilOutlinePass.h&#45;&gt;Descriptors.h</title>
<path fill="none" stroke="#718096" d="M462.97,-1193.24C429.82,-1145.89 360.04,-1046.2 332.02,-1006.17"/>
<polygon fill="#718096" stroke="#718096" points="460.3,-1195.53 468.9,-1201.71 466.03,-1191.51 460.3,-1195.53"/>
</g>
<!-- DescriptorSetLayoutInfo.h -->
<g id="node22" class="node">
<title>DescriptorSetLayoutInfo.h</title>
<polygon fill="#2d3748" stroke="#4a5568" points="768,-1006 616,-1006 616,-970 768,-970 768,-1006"/>
<text text-anchor="middle" x="692" y="-985.5" font-family="Times,serif" font-size="10.00" fill="#e2e8f0">DescriptorSetLayoutInfo.h</text>
</g>
<!-- StencilOutlinePass.h&#45;&gt;DescriptorSetLayoutInfo.h -->
<g id="edge20" class="edge">
<title>StencilOutlinePass.h&#45;&gt;DescriptorSetLayoutInfo.h</title>
<path fill="none" stroke="#718096" d="M503.83,-1194.12C546.93,-1147.13 639.29,-1046.45 676.24,-1006.17"/>
<polygon fill="#718096" stroke="#718096" points="501.04,-1191.98 496.86,-1201.71 506.2,-1196.71 501.04,-1191.98"/>
</g>
<!-- DefaultPass.h -->
<g id="node23" class="node">
<title>DefaultPass.h</title>
<polygon fill="#2d3748" stroke="#4a5568" points="972,-1470 886,-1470 886,-1434 972,-1434 972,-1470"/>
<text text-anchor="middle" x="929" y="-1449.5" font-family="Times,serif" font-size="10.00" fill="#e2e8f0">DefaultPass.h</text>
</g>
<!-- DefaultPass.h&#45;&gt;Descriptors.h -->
<g id="edge21" class="edge">
<title>DefaultPass.h&#45;&gt;Descriptors.h</title>
<path fill="none" stroke="#718096" d="M876,-1435.14C758.16,-1398.96 479.5,-1308.04 412,-1238 346.28,-1169.81 326.79,-1050.65 321.66,-1006.29"/>
<polygon fill="#718096" stroke="#718096" points="875.3,-1438.58 885.88,-1438.16 877.34,-1431.89 875.3,-1438.58"/>
</g>
<!-- DefaultPass.h&#45;&gt;DescriptorSetLayoutInfo.h -->
<g id="edge22" class="edge">
<title>DefaultPass.h&#45;&gt;DescriptorSetLayoutInfo.h</title>
<path fill="none" stroke="#718096" d="M931.52,-1423.86C934.75,-1376.37 936.27,-1276.17 901,-1202 858.61,-1112.87 763.58,-1038.44 717.72,-1006.19"/>
<polygon fill="#718096" stroke="#718096" points="928.02,-1423.73 930.75,-1433.97 935,-1424.26 928.02,-1423.73"/>
</g>
<!-- EngineView.h -->
<g id="node24" class="node">
<title>EngineView.h</title>
<polygon fill="#2d3748" stroke="#4a5568" points="1298,-1238 1212,-1238 1212,-1202 1298,-1202 1298,-1238"/>
<text text-anchor="middle" x="1255" y="-1217.5" font-family="Times,serif" font-size="10.00" fill="#e2e8f0">EngineView.h</text>
</g>
<!-- DefaultPass.h&#45;&gt;EngineView.h -->
<g id="edge23" class="edge">
<title>DefaultPass.h&#45;&gt;EngineView.h</title>
<path fill="none" stroke="#718096" d="M961.53,-1428.05C1026.86,-1381.96 1172.68,-1279.08 1230.6,-1238.21"/>
<polygon fill="#718096" stroke="#718096" points="959.39,-1425.28 953.24,-1433.9 963.43,-1431 959.39,-1425.28"/>
</g>
<!-- DefaultPass.h&#45;&gt;PassComponent.h -->
<g id="edge24" class="edge">
<title>DefaultPass.h&#45;&gt;PassComponent.h</title>
<path fill="none" stroke="#718096" d="M937.55,-1424.05C952.73,-1376.23 983.95,-1277.87 996.55,-1238.17"/>
<polygon fill="#718096" stroke="#718096" points="934.18,-1423.12 934.49,-1433.71 940.85,-1425.24 934.18,-1423.12"/>
</g>
<!-- SubMesh.h -->
<g id="node26" class="node">
<title>SubMesh.h</title>
<polygon fill="#2d3748" stroke="#4a5568" points="891.5,-1238 816.5,-1238 816.5,-1202 891.5,-1202 891.5,-1238"/>
<text text-anchor="middle" x="854" y="-1217.5" font-family="Times,serif" font-size="10.00" fill="#e2e8f0">SubMesh.h</text>
</g>
<!-- DefaultPass.h&#45;&gt;SubMesh.h -->
<g id="edge25" class="edge">
<title>DefaultPass.h&#45;&gt;SubMesh.h</title>
<path fill="none" stroke="#718096" d="M920.21,-1424.05C904.62,-1376.23 872.54,-1277.87 859.6,-1238.17"/>
<polygon fill="#718096" stroke="#718096" points="916.93,-1425.29 923.36,-1433.71 923.59,-1423.12 916.93,-1425.29"/>
</g>
<!-- Engine.h -->
<g id="node27" class="node">
<title>Engine.h</title>
<polygon fill="#2d3748" stroke="#4a5568" points="1276.5,-1006 1213.5,-1006 1213.5,-970 1276.5,-970 1276.5,-1006"/>
<text text-anchor="middle" x="1245" y="-985.5" font-family="Times,serif" font-size="10.00" fill="#e2e8f0">Engine.h</text>
</g>
<!-- EngineView.h&#45;&gt;Engine.h -->
<g id="edge38" class="edge">
<title>EngineView.h&#45;&gt;Engine.h</title>
<path fill="none" stroke="#718096" d="M1253.8,-1191.44C1251.71,-1143.41 1247.47,-1045.7 1245.75,-1006.17"/>
<polygon fill="#718096" stroke="#718096" points="1250.32,-1191.87 1254.25,-1201.71 1257.31,-1191.57 1250.32,-1191.87"/>
</g>
<!-- PassComponent.h&#45;&gt;ComponentConcepts.h -->
<g id="edge69" class="edge">
<title>PassComponent.h&#45;&gt;ComponentConcepts.h</title>
<path fill="none" stroke="#718096" d="M1001.85,-1191.41C1001.1,-1051.29 997.7,-420.64 997.09,-308.18"/>
<polygon fill="#718096" stroke="#718096" points="998.35,-1191.72 1001.91,-1201.7 1005.35,-1191.68 998.35,-1191.72"/>
</g>
<!-- array.h -->
<g id="node43" class="node">
<title>array.h</title>
<polygon fill="#2d3748" stroke="#4a5568" points="900,-773 846,-773 846,-737 900,-737 900,-773"/>
<text text-anchor="middle" x="873" y="-752.5" font-family="Times,serif" font-size="10.00" fill="#e2e8f0">array.h</text>
</g>
<!-- PassComponent.h&#45;&gt;array.h -->
<g id="edge70" class="edge">
<title>PassComponent.h&#45;&gt;array.h</title>
<path fill="none" stroke="#718096" d="M994.55,-1192.27C970.8,-1107.02 897.29,-843.16 877.79,-773.18"/>
<polygon fill="#718096" stroke="#718096" points="991.2,-1193.28 997.26,-1201.97 997.94,-1191.4 991.2,-1193.28"/>
</g>
<!-- SubMesh.h&#45;&gt;Stream.h -->
<g id="edge79" class="edge">
<title>SubMesh.h&#45;&gt;Stream.h</title>
<path fill="none" stroke="#718096" d="M852.67,-1191.89C849.31,-1122.33 840.52,-931.83 837,-773 832.97,-591.04 833.62,-370.34 833.91,-308.08"/>
<polygon fill="#718096" stroke="#718096" points="849.17,-1192.17 853.16,-1201.99 856.17,-1191.83 849.17,-1192.17"/>
</g>
<!-- Engine.h&#45;&gt;Archetype.h -->
<g id="edge26" class="edge">
<title>Engine.h&#45;&gt;Archetype.h</title>
<path fill="none" stroke="#718096" d="M1232.85,-960.53C1210.92,-912.74 1165.29,-813.29 1146.92,-773.25"/>
<polygon fill="#718096" stroke="#718096" points="1229.68,-962.01 1237.03,-969.64 1236.04,-959.09 1229.68,-962.01"/>
</g>
<!-- UpdateQueue.h -->
<g id="node28" class="node">
<title>UpdateQueue.h</title>
<polygon fill="#2d3748" stroke="#4a5568" points="1294,-773 1196,-773 1196,-737 1294,-737 1294,-773"/>
<text text-anchor="middle" x="1245" y="-752.5" font-family="Times,serif" font-size="10.00" fill="#e2e8f0">UpdateQueue.h</text>
</g>
<!-- Engine.h&#45;&gt;UpdateQueue.h -->
<g id="edge27" class="edge">
<title>Engine.h&#45;&gt;UpdateQueue.h</title>
<path fill="none" stroke="#718096" d="M1245,-959.63C1245,-911.49 1245,-813.03 1245,-773.25"/>
<polygon fill="#718096" stroke="#718096" points="1241.5,-959.64 1245,-969.64 1248.5,-959.64 1241.5,-959.64"/>
</g>
<!-- UpdateQueue.h&#45;&gt;ComponentConcepts.h -->
<g id="edge29" class="edge">
<title>UpdateQueue.h&#45;&gt;ComponentConcepts.h</title>
<path fill="none" stroke="#718096" d="M1249.09,-726.78C1254.94,-679.16 1261.43,-578.78 1226,-505 1181.36,-412.05 1077.33,-339.45 1026.29,-308"/>
<polygon fill="#718096" stroke="#718096" points="1245.59,-726.54 1247.75,-736.91 1252.53,-727.46 1245.59,-726.54"/>
</g>
<!-- UpdateQueue.h&#45;&gt;TypeRegistry.h -->
<g id="edge28" class="edge">
<title>UpdateQueue.h&#45;&gt;TypeRegistry.h</title>
<path fill="none" stroke="#718096" d="M1236.21,-727.05C1220.62,-679.23 1188.54,-580.87 1175.6,-541.17"/>
<polygon fill="#718096" stroke="#718096" points="1232.93,-728.29 1239.36,-736.71 1239.59,-726.12 1232.93,-728.29"/>
</g>
<!-- IdentifyPass.h -->
<g id="node29" class="node">
<title>IdentifyPass.h</title>
<polygon fill="#2d3748" stroke="#4a5568" points="829.5,-1470 740.5,-1470 740.5,-1434 829.5,-1434 829.5,-1470"/>
<text text-anchor="middle" x="785" y="-1449.5" font-family="Times,serif" font-size="10.00" fill="#e2e8f0">IdentifyPass.h</text>
</g>
<!-- IdentifyPass.h&#45;&gt;VulkanEngine.h -->
<g id="edge30" class="edge">
<title>IdentifyPass.h&#45;&gt;VulkanEngine.h</title>
<path fill="none" stroke="#f56565" stroke-width="2" d="M779,-1480.22C761.97,-1555.03 709.65,-1769.24 634,-1935 598.57,-2012.64 540.27,-2096.5 514.7,-2131.8"/>
<polygon fill="#f56565" stroke="#f56565" stroke-width="2" points="782.47,-1480.74 781.25,-1470.21 775.64,-1479.2 782.47,-1480.74"/>
</g>
<!-- IdentifyPass.h&#45;&gt;ComponentConcepts.h -->
<g id="edge34" class="edge">
<title>IdentifyPass.h&#45;&gt;ComponentConcepts.h</title>
<path fill="none" stroke="#ffd700" stroke-width="2" d="M786.26,-1423.95C788.68,-1378.06 794.93,-1282.13 808,-1202 839.53,-1008.67 868.95,-964.74 909,-773 946.83,-591.89 983.9,-370.6 994.19,-308.14"/>
<polygon fill="#ffd700" stroke="#ffd700" stroke-width="2" points="782.77,-1423.83 785.75,-1433.99 789.76,-1424.18 782.77,-1423.83"/>
</g>
<!-- IdentifyPass.h&#45;&gt;Descriptors.h -->
<g id="edge31" class="edge">
<title>IdentifyPass.h&#45;&gt;Descriptors.h</title>
<path fill="none" stroke="#ffd700" stroke-width="2" d="M730.77,-1432.72C622.86,-1395.18 387.52,-1307.13 340,-1238 289.76,-1164.92 307.02,-1049.7 316,-1006.3"/>
<polygon fill="#ffd700" stroke="#ffd700" stroke-width="2" points="729.9,-1436.12 740.49,-1436.08 732.19,-1429.5 729.9,-1436.12"/>
</g>
<!-- IdentifyPass.h&#45;&gt;DescriptorSetLayoutInfo.h -->
<g id="edge32" class="edge">
<title>IdentifyPass.h&#45;&gt;DescriptorSetLayoutInfo.h</title>
<path fill="none" stroke="#ffd700" stroke-width="2" d="M779.51,-1423.74C762.26,-1338.04 709.46,-1075.72 695.44,-1006.11"/>
<polygon fill="#ffd700" stroke="#ffd700" stroke-width="2" points="776.12,-1424.62 781.52,-1433.73 782.98,-1423.24 776.12,-1424.62"/>
</g>
<!-- IdentifyPass.h&#45;&gt;EngineView.h -->
<g id="edge33" class="edge">
<title>IdentifyPass.h&#45;&gt;EngineView.h</title>
<path fill="none" stroke="#ffd700" stroke-width="2" d="M829.07,-1429.43C921.92,-1384 1136.01,-1279.23 1220.15,-1238.06"/>
<polygon fill="#ffd700" stroke="#ffd700" stroke-width="2" points="827.39,-1426.36 819.94,-1433.9 830.46,-1432.65 827.39,-1426.36"/>
</g>
<!-- IdentifyPass.h&#45;&gt;PassComponent.h -->
<g id="edge36" class="edge">
<title>IdentifyPass.h&#45;&gt;PassComponent.h</title>
<path fill="none" stroke="#ffd700" stroke-width="2" d="M808.2,-1426.41C852.41,-1379.55 947.72,-1278.54 985.8,-1238.17"/>
<polygon fill="#ffd700" stroke="#ffd700" stroke-width="2" points="805.63,-1424.04 801.31,-1433.71 810.72,-1428.84 805.63,-1424.04"/>
</g>
<!-- IdentifyPass.h&#45;&gt;SubMesh.h -->
<g id="edge37" class="edge">
<title>IdentifyPass.h&#45;&gt;SubMesh.h</title>
<path fill="none" stroke="#ffd700" stroke-width="2" d="M793.09,-1424.05C807.43,-1376.23 836.94,-1277.87 848.85,-1238.17"/>
<polygon fill="#ffd700" stroke="#ffd700" stroke-width="2" points="789.71,-1423.13 790.19,-1433.71 796.41,-1425.14 789.71,-1423.13"/>
</g>
<!-- ResourceHandles.h -->
<g id="node30" class="node">
<title>ResourceHandles.h</title>
<polygon fill="#2d3748" stroke="#4a5568" points="288,-1238 172,-1238 172,-1202 288,-1202 288,-1238"/>
<text text-anchor="middle" x="230" y="-1217.5" font-family="Times,serif" font-size="10.00" fill="#e2e8f0">ResourceHandles.h</text>
</g>
<!-- IdentifyPass.h&#45;&gt;ResourceHandles.h -->
<g id="edge35" class="edge">
<title>IdentifyPass.h&#45;&gt;ResourceHandles.h</title>
<path fill="none" stroke="#718096" d="M734.28,-1429.98C625.36,-1384.84 370.91,-1279.39 271.16,-1238.06"/>
<polygon fill="#718096" stroke="#718096" points="733.16,-1433.31 743.74,-1433.9 735.84,-1426.84 733.16,-1433.31"/>
</g>
<!-- ResourceHandles.h&#45;&gt;Descriptors.h -->
<g id="edge61" class="edge">
<title>ResourceHandles.h&#45;&gt;Descriptors.h</title>
<path fill="none" stroke="#718096" d="M240.43,-1192.35C259.1,-1144.65 297.71,-1045.95 313.28,-1006.17"/>
<polygon fill="#718096" stroke="#718096" points="237.15,-1191.12 236.76,-1201.71 243.67,-1193.68 237.15,-1191.12"/>
</g>
<!-- shader_descriptors.h&#45;&gt;VulkanCheck.h -->
<g id="edge40" class="edge">
<title>shader_descriptors.h&#45;&gt;VulkanCheck.h</title>
<path fill="none" stroke="#718096" d="M598.29,-1194.52C563.5,-1157.13 499.2,-1082.09 466,-1006 391.54,-835.32 376.44,-604.86 373.61,-541.01"/>
<polygon fill="#718096" stroke="#718096" points="595.84,-1197.03 605.24,-1201.91 600.94,-1192.23 595.84,-1197.03"/>
</g>
<!-- shader_descriptors.h&#45;&gt;VulkanNew.h -->
<g id="edge41" class="edge">
<title>shader_descriptors.h&#45;&gt;VulkanNew.h</title>
<path fill="none" stroke="#718096" d="M616.43,-1191.76C592.98,-1076.95 502.52,-634.2 483.51,-541.2"/>
<polygon fill="#718096" stroke="#718096" points="613.06,-1192.72 618.49,-1201.82 619.92,-1191.32 613.06,-1192.72"/>
</g>
<!-- shader_descriptors.h&#45;&gt;DescriptorSetLayoutInfo.h -->
<g id="edge39" class="edge">
<title>shader_descriptors.h&#45;&gt;DescriptorSetLayoutInfo.h</title>
<path fill="none" stroke="#718096" d="M630.2,-1192.05C644.76,-1144.23 674.69,-1045.87 686.77,-1006.17"/>
<polygon fill="#718096" stroke="#718096" points="626.82,-1191.13 627.26,-1201.71 633.52,-1193.16 626.82,-1191.13"/>
</g>
<!-- PassMeshManager.h&#45;&gt;DefaultPass.h -->
<g id="edge42" class="edge">
<title>PassMeshManager.h&#45;&gt;DefaultPass.h</title>
<path fill="none" stroke="#718096" d="M890.21,-1656.63C899.38,-1608.49 918.14,-1510.03 925.71,-1470.25"/>
<polygon fill="#718096" stroke="#718096" points="886.74,-1656.16 888.31,-1666.64 893.62,-1657.47 886.74,-1656.16"/>
</g>
<!-- PassMeshManager.h&#45;&gt;SubMesh.h -->
<g id="edge49" class="edge">
<title>PassMeshManager.h&#45;&gt;SubMesh.h</title>
<path fill="none" stroke="#ffd700" stroke-width="2" d="M883.18,-1656.74C877.43,-1570.95 859.83,-1308.02 855.15,-1238.18"/>
<polygon fill="#ffd700" stroke="#ffd700" stroke-width="2" points="879.7,-1657.23 883.86,-1666.97 886.68,-1656.76 879.7,-1657.23"/>
</g>
<!-- PassMeshManager.h&#45;&gt;Engine.h -->
<g id="edge43" class="edge">
<title>PassMeshManager.h&#45;&gt;Engine.h</title>
<path fill="none" stroke="#ffd700" stroke-width="2" d="M920.21,-1661.27C1006.36,-1603.28 1226.57,-1440.03 1307,-1238 1340.37,-1154.19 1282.15,-1047.17 1256.36,-1006.1"/>
<polygon fill="#ffd700" stroke="#ffd700" stroke-width="2" points="918.2,-1658.41 911.82,-1666.87 922.08,-1664.23 918.2,-1658.41"/>
</g>
<!-- PassMeshManager.h&#45;&gt;IdentifyPass.h -->
<g id="edge44" class="edge">
<title>PassMeshManager.h&#45;&gt;IdentifyPass.h</title>
<path fill="none" stroke="#f56565" stroke-width="2" d="M873.41,-1657.23C852.67,-1609.32 809.76,-1510.2 792.47,-1470.25"/>
<polygon fill="#f56565" stroke="#f56565" stroke-width="2" points="870.3,-1658.85 877.48,-1666.64 876.72,-1656.07 870.3,-1658.85"/>
</g>
<!-- AssetID.h -->
<g id="node33" class="node">
<title>AssetID.h</title>
<polygon fill="#2d3748" stroke="#4a5568" points="1649.5,-1470 1584.5,-1470 1584.5,-1434 1649.5,-1434 1649.5,-1470"/>
<text text-anchor="middle" x="1617" y="-1449.5" font-family="Times,serif" font-size="10.00" fill="#e2e8f0">AssetID.h</text>
</g>
<!-- PassMeshManager.h&#45;&gt;AssetID.h -->
<g id="edge45" class="edge">
<title>PassMeshManager.h&#45;&gt;AssetID.h</title>
<path fill="none" stroke="#718096" d="M948.7,-1663.9C1098.99,-1616.47 1471.51,-1498.91 1584.19,-1463.35"/>
<polygon fill="#718096" stroke="#718096" points="947.61,-1660.57 939.12,-1666.92 949.71,-1667.25 947.61,-1660.57"/>
</g>
<!-- AssetFile.h -->
<g id="node34" class="node">
<title>AssetFile.h</title>
<polygon fill="#2d3748" stroke="#4a5568" points="1449.5,-1470 1376.5,-1470 1376.5,-1434 1449.5,-1434 1449.5,-1470"/>
<text text-anchor="middle" x="1413" y="-1449.5" font-family="Times,serif" font-size="10.00" fill="#e2e8f0">AssetFile.h</text>
</g>
<!-- PassMeshManager.h&#45;&gt;AssetFile.h -->
<g id="edge46" class="edge">
<title>PassMeshManager.h&#45;&gt;AssetFile.h</title>
<path fill="none" stroke="#718096" d="M933.65,-1662.72C1038.4,-1616.89 1283.34,-1509.73 1376.32,-1469.05"/>
<polygon fill="#718096" stroke="#718096" points="932.01,-1659.61 924.25,-1666.83 934.82,-1666.02 932.01,-1659.61"/>
</g>
<!-- Mesh.h -->
<g id="node35" class="node">
<title>Mesh.h</title>
<polygon fill="#2d3748" stroke="#4a5568" points="529.5,-1006 474.5,-1006 474.5,-970 529.5,-970 529.5,-1006"/>
<text text-anchor="middle" x="502" y="-985.5" font-family="Times,serif" font-size="10.00" fill="#e2e8f0">Mesh.h</text>
</g>
<!-- PassMeshManager.h&#45;&gt;Mesh.h -->
<g id="edge47" class="edge">
<title>PassMeshManager.h&#45;&gt;Mesh.h</title>
<path fill="none" stroke="#718096" d="M861.31,-1659.48C826.65,-1622.01 762.88,-1546.74 732,-1470 687.06,-1358.34 744.02,-1311.02 693,-1202 652.57,-1115.63 565.35,-1039 524.26,-1006.09"/>
<polygon fill="#718096" stroke="#718096" points="858.86,-1661.98 868.24,-1666.89 863.97,-1657.19 858.86,-1661.98"/>
</g>
<!-- PassDirectory.h -->
<g id="node36" class="node">
<title>PassDirectory.h</title>
<polygon fill="#2d3748" stroke="#4a5568" points="683.5,-1470 588.5,-1470 588.5,-1434 683.5,-1434 683.5,-1470"/>
<text text-anchor="middle" x="636" y="-1449.5" font-family="Times,serif" font-size="10.00" fill="#e2e8f0">PassDirectory.h</text>
</g>
<!-- PassMeshManager.h&#45;&gt;PassDirectory.h -->
<g id="edge48" class="edge">
<title>PassMeshManager.h&#45;&gt;PassDirectory.h</title>
<path fill="none" stroke="#718096" d="M858.69,-1659.59C808.1,-1612.66 698.38,-1510.87 654.59,-1470.25"/>
<polygon fill="#718096" stroke="#718096" points="856.57,-1662.4 866.28,-1666.64 861.33,-1657.27 856.57,-1662.4"/>
</g>
<!-- simple_json.h -->
<g id="node42" class="node">
<title>simple_json.h</title>
<polygon fill="#2d3748" stroke="#4a5568" points="1456,-1238 1370,-1238 1370,-1202 1456,-1202 1456,-1238"/>
<text text-anchor="middle" x="1413" y="-1217.5" font-family="Times,serif" font-size="10.00" fill="#e2e8f0">simple_json.h</text>
</g>
<!-- AssetFile.h&#45;&gt;simple_json.h -->
<g id="edge57" class="edge">
<title>AssetFile.h&#45;&gt;simple_json.h</title>
<path fill="none" stroke="#718096" d="M1413,-1423.44C1413,-1375.41 1413,-1277.7 1413,-1238.17"/>
<polygon fill="#718096" stroke="#718096" points="1409.5,-1423.71 1413,-1433.71 1416.5,-1423.71 1409.5,-1423.71"/>
</g>
<!-- Mesh.h&#45;&gt;Stream.h -->
<g id="edge67" class="edge">
<title>Mesh.h&#45;&gt;Stream.h</title>
<path fill="none" stroke="#718096" d="M504.87,-959.42C513.78,-882.82 545.88,-662.74 634,-505 681.74,-419.54 770.77,-341.6 812,-308.19"/>
<polygon fill="#718096" stroke="#718096" points="501.35,-959.33 503.72,-969.66 508.31,-960.11 501.35,-959.33"/>
</g>
<!-- Mesh.h&#45;&gt;Buffer.h -->
<g id="edge68" class="edge">
<title>Mesh.h&#45;&gt;Buffer.h</title>
<path fill="none" stroke="#718096" d="M498.8,-959.63C493.17,-911.49 481.67,-813.03 477.02,-773.25"/>
<polygon fill="#718096" stroke="#718096" points="495.33,-960.11 499.97,-969.64 502.29,-959.3 495.33,-960.11"/>
</g>
<!-- PassDirectory.h&#45;&gt;shader_descriptors.h -->
<g id="edge71" class="edge">
<title>PassDirectory.h&#45;&gt;shader_descriptors.h</title>
<path fill="none" stroke="#718096" d="M634.32,-1423.44C631.4,-1375.41 625.45,-1277.7 623.05,-1238.17"/>
<polygon fill="#718096" stroke="#718096" points="630.85,-1423.94 634.95,-1433.71 637.83,-1423.52 630.85,-1423.94"/>
</g>
<!-- Core.h -->
<g id="node37" class="node">
<title>Core.h</title>
<polygon fill="#2d3748" stroke="#4a5568" points="257,-2400 203,-2400 203,-2364 257,-2364 257,-2400"/>
<text text-anchor="middle" x="230" y="-2379.5" font-family="Times,serif" font-size="10.00" fill="#e2e8f0">Core.h</text>
</g>
<!-- Core.h&#45;&gt;VulkanEngine.h -->
<g id="edge51" class="edge">
<title>Core.h&#45;&gt;VulkanEngine.h</title>
<path fill="none" stroke="#718096" d="M258.4,-2356.99C313.51,-2310.38 433.76,-2208.7 481.69,-2168.17"/>
<polygon fill="#718096" stroke="#718096" points="255.82,-2354.58 250.44,-2363.71 260.34,-2359.93 255.82,-2354.58"/>
</g>
<!-- ClickOnMeshTool.h -->
<g id="node38" class="node">
<title>ClickOnMeshTool.h</title>
<polygon fill="#2d3748" stroke="#4a5568" points="116,-1703 0,-1703 0,-1667 116,-1667 116,-1703"/>
<text text-anchor="middle" x="58" y="-1682.5" font-family="Times,serif" font-size="10.00" fill="#e2e8f0">ClickOnMeshTool.h</text>
</g>
<!-- Core.h&#45;&gt;ClickOnMeshTool.h -->
<g id="edge52" class="edge">
<title>Core.h&#45;&gt;ClickOnMeshTool.h</title>
<path fill="none" stroke="#718096" d="M222.54,-2354.05C211.42,-2313.7 189.98,-2235.11 173,-2168 127.1,-1986.6 76.18,-1765.51 61.91,-1703.12"/>
<polygon fill="#718096" stroke="#718096" points="219.23,-2355.22 225.26,-2363.92 225.97,-2353.35 219.23,-2355.22"/>
</g>
<!-- ImguiOverlay.h -->
<g id="node39" class="node">
<title>ImguiOverlay.h</title>
<polygon fill="#2d3748" stroke="#4a5568" points="277.5,-2168 182.5,-2168 182.5,-2132 277.5,-2132 277.5,-2168"/>
<text text-anchor="middle" x="230" y="-2147.5" font-family="Times,serif" font-size="10.00" fill="#e2e8f0">ImguiOverlay.h</text>
</g>
<!-- Core.h&#45;&gt;ImguiOverlay.h -->
<g id="edge53" class="edge">
<title>Core.h&#45;&gt;ImguiOverlay.h</title>
<path fill="none" stroke="#718096" d="M230,-2353.44C230,-2305.41 230,-2207.7 230,-2168.17"/>
<polygon fill="#718096" stroke="#718096" points="226.5,-2353.71 230,-2363.71 233.5,-2353.71 226.5,-2353.71"/>
</g>
<!-- ClickOnMeshTool.h&#45;&gt;Image.h -->
<g id="edge64" class="edge">
<title>ClickOnMeshTool.h&#45;&gt;Image.h</title>
<path fill="none" stroke="#ffd700" stroke-width="2" d="M56.04,-1656.76C49.75,-1561.45 32.96,-1234.44 77,-970 89.57,-894.54 122.32,-808.84 136.86,-773.08"/>
<polygon fill="#ffd700" stroke="#ffd700" stroke-width="2" points="52.56,-1657.23 56.73,-1666.97 59.55,-1656.75 52.56,-1657.23"/>
</g>
<!-- EngineResources.h -->
<g id="node44" class="node">
<title>EngineResources.h</title>
<polygon fill="#2d3748" stroke="#4a5568" points="288,-1470 172,-1470 172,-1434 288,-1434 288,-1470"/>
<text text-anchor="middle" x="230" y="-1449.5" font-family="Times,serif" font-size="10.00" fill="#e2e8f0">EngineResources.h</text>
</g>
<!-- ClickOnMeshTool.h&#45;&gt;EngineResources.h -->
<g id="edge63" class="edge">
<title>ClickOnMeshTool.h&#45;&gt;EngineResources.h</title>
<path fill="none" stroke="#718096" d="M77.04,-1658.42C112.37,-1610.99 187.16,-1510.54 217.16,-1470.25"/>
<polygon fill="#718096" stroke="#718096" points="74.09,-1656.53 70.93,-1666.64 79.71,-1660.71 74.09,-1656.53"/>
</g>
<!-- ImguiOverlay.h&#45;&gt;EngineResources.h -->
<g id="edge66" class="edge">
<title>ImguiOverlay.h&#45;&gt;EngineResources.h</title>
<path fill="none" stroke="#718096" d="M230,-2121.72C230,-2006.74 230,-1563.36 230,-1470.23"/>
<polygon fill="#718096" stroke="#718096" points="226.5,-2121.8 230,-2131.8 233.5,-2121.8 226.5,-2121.8"/>
</g>
<!-- ShaderAssetData.h -->
<g id="node40" class="node">
<title>ShaderAssetData.h</title>
<polygon fill="#2d3748" stroke="#4a5568" points="1867.5,-1703 1752.5,-1703 1752.5,-1667 1867.5,-1667 1867.5,-1703"/>
<text text-anchor="middle" x="1810" y="-1682.5" font-family="Times,serif" font-size="10.00" fill="#e2e8f0">ShaderAssetData.h</text>
</g>
<!-- ShaderAssetData.h&#45;&gt;AssetID.h -->
<g id="edge54" class="edge">
<title>ShaderAssetData.h&#45;&gt;AssetID.h</title>
<path fill="none" stroke="#718096" d="M1788.88,-1658.72C1749.35,-1611.4 1665.14,-1510.62 1631.41,-1470.25"/>
<polygon fill="#718096" stroke="#718096" points="1786.4,-1661.21 1795.49,-1666.64 1791.77,-1656.72 1786.4,-1661.21"/>
</g>
<!-- ecs_tests.h -->
<g id="node41" class="node">
<title>ecs_tests.h</title>
<polygon fill="#2d3748" stroke="#4a5568" points="1364,-1703 1292,-1703 1292,-1667 1364,-1667 1364,-1703"/>
<text text-anchor="middle" x="1328" y="-1682.5" font-family="Times,serif" font-size="10.00" fill="#e2e8f0">ecs_tests.h</text>
</g>
<!-- ecs_tests.h&#45;&gt;EngineView.h -->
<g id="edge55" class="edge">
<title>ecs_tests.h&#45;&gt;EngineView.h</title>
<path fill="none" stroke="#718096" d="M1323.74,-1657C1310.26,-1571.49 1268.73,-1308.09 1257.71,-1238.18"/>
<polygon fill="#718096" stroke="#718096" points="1320.3,-1657.64 1325.32,-1666.97 1327.22,-1656.55 1320.3,-1657.64"/>
</g>
<!-- ecs_tests.h&#45;&gt;AssetFile.h -->
<g id="edge56" class="edge">
<title>ecs_tests.h&#45;&gt;AssetFile.h</title>
<path fill="none" stroke="#718096" d="M1337.85,-1657.23C1355.48,-1609.32 1391.95,-1510.2 1406.65,-1470.25"/>
<polygon fill="#718096" stroke="#718096" points="1334.56,-1656.04 1334.39,-1666.64 1341.13,-1658.46 1334.56,-1656.04"/>
</g>
<!-- array.h&#45;&gt;Stream.h -->
<g id="edge58" class="edge">
<title>array.h&#45;&gt;Stream.h</title>
<path fill="none" stroke="#718096" d="M870.28,-726.75C866.29,-686.25 858.67,-607.78 853,-541 845.58,-453.61 838.07,-348.9 835.21,-308.28"/>
<polygon fill="#718096" stroke="#718096" points="866.82,-727.29 871.29,-736.89 873.79,-726.6 866.82,-727.29"/>
</g>
<!-- EngineResources.h&#45;&gt;ResourceHandles.h -->
<g id="edge59" class="edge">
<title>EngineResources.h&#45;&gt;ResourceHandles.h</title>
<path fill="none" stroke="#718096" d="M230,-1423.44C230,-1375.41 230,-1277.7 230,-1238.17"/>
<polygon fill="#718096" stroke="#718096" points="226.5,-1423.71 230,-1433.71 233.5,-1423.71 226.5,-1423.71"/>
</g>
<!-- EngineResources.h&#45;&gt;Mesh.h -->
<g id="edge60" class="edge">
<title>EngineResources.h&#45;&gt;Mesh.h</title>
<path fill="none" stroke="#718096" d="M245.29,-1425.03C294.93,-1340.72 450.73,-1076.08 491.93,-1006.11"/>
<polygon fill="#718096" stroke="#718096" points="242.22,-1423.34 240.17,-1433.73 248.26,-1426.89 242.22,-1423.34"/>
</g>
<!-- Asset16.h -->
<g id="node45" class="node">
<title>Asset16.h</title>
<polygon fill="#2d3748" stroke="#4a5568" points="1952,-1703 1886,-1703 1886,-1667 1952,-1667 1952,-1703"/>
<text text-anchor="middle" x="1919" y="-1682.5" font-family="Times,serif" font-size="10.00" fill="#e2e8f0">Asset16.h</text>
</g>
<!-- Asset16.h&#45;&gt;AssetID.h -->
<g id="edge65" class="edge">
<title>Asset16.h&#45;&gt;AssetID.h</title>
<path fill="none" stroke="#718096" d="M1888.22,-1660.46C1827.38,-1613.92 1692.99,-1511.12 1639.55,-1470.25"/>
<polygon fill="#718096" stroke="#718096" points="1886.23,-1663.34 1896.3,-1666.64 1890.48,-1657.78 1886.23,-1663.34"/>
</g>
<!-- Asset18.h -->
<g id="node46" class="node">
<title>Asset18.h</title>
<polygon fill="#2d3748" stroke="#4a5568" points="1566,-1703 1500,-1703 1500,-1667 1566,-1667 1566,-1703"/>
<text text-anchor="middle" x="1533" y="-1682.5" font-family="Times,serif" font-size="10.00" fill="#e2e8f0">Asset18.h</text>
</g>
<!-- Asset18.h&#45;&gt;AssetID.h -->
<g id="edge73" class="edge">
<title>Asset18.h&#45;&gt;AssetID.h</title>
<path fill="none" stroke="#718096" d="M1542.73,-1657.23C1560.16,-1609.32 1596.2,-1510.2 1610.73,-1470.25"/>
<polygon fill="#718096" stroke="#718096" points="1539.44,-1656.04 1539.31,-1666.64 1546.02,-1658.44 1539.44,-1656.04"/>
</g>
<!-- AssetManager.h -->
<g id="node47" class="node">
<title>AssetManager.h</title>
<polygon fill="#2d3748" stroke="#4a5568" points="1482,-1703 1382,-1703 1382,-1667 1482,-1667 1482,-1703"/>
<text text-anchor="middle" x="1432" y="-1682.5" font-family="Times,serif" font-size="10.00" fill="#e2e8f0">AssetManager.h</text>
</g>
<!-- AssetManager.h&#45;&gt;AssetID.h -->
<g id="edge74" class="edge">
<title>AssetManager.h&#45;&gt;AssetID.h</title>
<path fill="none" stroke="#718096" d="M1452.25,-1658.72C1490.14,-1611.4 1570.85,-1510.62 1603.19,-1470.25"/>
<polygon fill="#718096" stroke="#718096" points="1449.42,-1656.64 1445.91,-1666.64 1454.89,-1661.02 1449.42,-1656.64"/>
</g>
<!-- AssetManager.h&#45;&gt;AssetFile.h -->
<g id="edge75" class="edge">
<title>AssetManager.h&#45;&gt;AssetFile.h</title>
<path fill="none" stroke="#718096" d="M1429.75,-1656.63C1425.79,-1608.49 1417.69,-1510.03 1414.42,-1470.25"/>
<polygon fill="#718096" stroke="#718096" points="1426.26,-1656.96 1430.57,-1666.64 1433.24,-1656.38 1426.26,-1656.96"/>
</g>
<!-- Asset29.h -->
<g id="node48" class="node">
<title>Asset29.h</title>
<polygon fill="#2d3748" stroke="#4a5568" points="1650,-1703 1584,-1703 1584,-1667 1650,-1667 1650,-1703"/>
<text text-anchor="middle" x="1617" y="-1682.5" font-family="Times,serif" font-size="10.00" fill="#e2e8f0">Asset29.h</text>
</g>
<!-- Asset29.h&#45;&gt;AssetID.h -->
<g id="edge76" class="edge">
<title>Asset29.h&#45;&gt;AssetID.h</title>
<path fill="none" stroke="#718096" d="M1617,-1656.63C1617,-1608.49 1617,-1510.03 1617,-1470.25"/>
<polygon fill="#718096" stroke="#718096" points="1613.5,-1656.64 1617,-1666.64 1620.5,-1656.64 1613.5,-1656.64"/>
</g>
<!-- SceneAssetGenerator.h -->
<g id="node49" class="node">
<title>SceneAssetGenerator.h</title>
<polygon fill="#2d3748" stroke="#4a5568" points="609,-2400 473,-2400 473,-2364 609,-2364 609,-2400"/>
<text text-anchor="middle" x="541" y="-2379.5" font-family="Times,serif" font-size="10.00" fill="#e2e8f0">SceneAssetGenerator.h</text>
</g>
<!-- IAssetGenerator.h -->
<g id="node50" class="node">
<title>IAssetGenerator.h</title>
<polygon fill="#2d3748" stroke="#4a5568" points="678.5,-2168 569.5,-2168 569.5,-2132 678.5,-2132 678.5,-2168"/>
<text text-anchor="middle" x="624" y="-2147.5" font-family="Times,serif" font-size="10.00" fill="#e2e8f0">IAssetGenerator.h</text>
</g>
<!-- SceneAssetGenerator.h&#45;&gt;IAssetGenerator.h -->
<g id="edge77" class="edge">
<title>SceneAssetGenerator.h&#45;&gt;IAssetGenerator.h</title>
<path fill="none" stroke="#718096" d="M550.73,-2354.05C567.98,-2306.23 603.48,-2207.87 617.8,-2168.17"/>
<polygon fill="#718096" stroke="#718096" points="547.34,-2353.12 547.24,-2363.71 553.93,-2355.49 547.34,-2353.12"/>
</g>
<!-- StandardAssetGenerators.h -->
<g id="node51" class="node">
<title>StandardAssetGenerators.h</title>
<polygon fill="#2d3748" stroke="#4a5568" points="785,-2400 627,-2400 627,-2364 785,-2364 785,-2400"/>
<text text-anchor="middle" x="706" y="-2379.5" font-family="Times,serif" font-size="10.00" fill="#e2e8f0">StandardAssetGenerators.h</text>
</g>
<!-- StandardAssetGenerators.h&#45;&gt;IAssetGenerator.h -->
<g id="edge78" class="edge">
<title>StandardAssetGenerators.h&#45;&gt;IAssetGenerator.h</title>
<path fill="none" stroke="#718096" d="M696.39,-2354.05C679.34,-2306.23 644.28,-2207.87 630.12,-2168.17"/>
<polygon fill="#718096" stroke="#718096" points="693.18,-2355.47 699.84,-2363.71 699.78,-2353.12 693.18,-2355.47"/>
</g>
<!-- EngineExtensions.h -->
<g id="node52" class="node">
<title>EngineExtensions.h</title>
<polygon fill="#2d3748" stroke="#4a5568" points="1193.5,-1238 1074.5,-1238 1074.5,-1202 1193.5,-1202 1193.5,-1238"/>
<text text-anchor="middle" x="1134" y="-1217.5" font-family="Times,serif" font-size="10.00" fill="#e2e8f0">EngineExtensions.h</text>
</g>
<!-- EngineExtensions.h&#45;&gt;Engine.h -->
<g id="edge80" class="edge">
<title>EngineExtensions.h&#45;&gt;Engine.h</title>
<path fill="none" stroke="#718096" d="M1146.72,-1192.65C1169.68,-1145.06 1217.47,-1046.04 1236.71,-1006.17"/>
<polygon fill="#718096" stroke="#718096" points="1143.54,-1191.19 1142.34,-1201.71 1149.84,-1194.23 1143.54,-1191.19"/>
</g>
<!-- SerialArrayHelpers.h -->
<g id="node53" class="node">
<title>SerialArrayHelpers.h</title>
<polygon fill="#2d3748" stroke="#4a5568" points="767.5,-541 642.5,-541 642.5,-505 767.5,-505 767.5,-541"/>
<text text-anchor="middle" x="705" y="-520.5" font-family="Times,serif" font-size="10.00" fill="#e2e8f0">SerialArrayHelpers.h</text>
</g>
<!-- SerialArrayHelpers.h&#45;&gt;Stream.h -->
<g id="edge81" class="edge">
<title>SerialArrayHelpers.h&#45;&gt;Stream.h</title>
<path fill="none" stroke="#718096" d="M719.61,-495.83C746.24,-448.15 801.96,-348.37 824.37,-308.25"/>
<polygon fill="#718096" stroke="#718096" points="716.52,-494.2 714.7,-504.64 722.63,-497.61 716.52,-494.2"/>
</g>
<!-- Pipelines.h -->
<g id="node54" class="node">
<title>Pipelines.h</title>
<polygon fill="#2d3748" stroke="#4a5568" points="1846.5,-1935 1773.5,-1935 1773.5,-1899 1846.5,-1899 1846.5,-1935"/>
<text text-anchor="middle" x="1810" y="-1914.5" font-family="Times,serif" font-size="10.00" fill="#e2e8f0">Pipelines.h</text>
</g>
<!-- Pipelines.h&#45;&gt;ShaderAssetData.h -->
<g id="edge82" class="edge">
<title>Pipelines.h&#45;&gt;ShaderAssetData.h</title>
<path fill="none" stroke="#718096" d="M1810,-1888.44C1810,-1840.41 1810,-1742.7 1810,-1703.17"/>
<polygon fill="#718096" stroke="#718096" points="1806.5,-1888.71 1810,-1898.71 1813.5,-1888.71 1806.5,-1888.71"/>
</g>
<!-- Asset17.h -->
<g id="node55" class="node">
<title>Asset17.h</title>
<polygon fill="#2d3748" stroke="#4a5568" points="1734,-1703 1668,-1703 1668,-1667 1734,-1667 1734,-1703"/>
<text text-anchor="middle" x="1701" y="-1682.5" font-family="Times,serif" font-size="10.00" fill="#e2e8f0">Asset17.h</text>
</g>
<!-- Asset17.h&#45;&gt;AssetID.h -->
<g id="edge85" class="edge">
<title>Asset17.h&#45;&gt;AssetID.h</title>
<path fill="none" stroke="#718096" d="M1691.27,-1657.23C1673.84,-1609.32 1637.8,-1510.2 1623.27,-1470.25"/>
<polygon fill="#718096" stroke="#718096" points="1687.98,-1658.44 1694.69,-1666.64 1694.56,-1656.04 1687.98,-1658.44"/>
</g>
</g>
</svg>
